<svg xmlns="http://www.w3.org/2000/svg" xmlns:xlink="http://www.w3.org/1999/xlink" width="150" zoomAndPan="magnify" viewBox="0 0 112.5 74.999997" height="100" preserveAspectRatio="xMidYMid meet" version="1.0"><defs><clipPath id="8f42d500cb"><path d="M 18.660156 0.734375 L 92.582031 0.734375 L 92.582031 73.910156 L 18.660156 73.910156 Z M 18.660156 0.734375 " clip-rule="nonzero"/></clipPath><clipPath id="03ea2a2909"><path d="M 91.230469 52.519531 L 84.164062 50.292969 L 80.644531 45.042969 L 84.222656 39.5625 C 86.773438 39.757812 89.28125 38.601562 90.78125 36.484375 C 92.46875 34.101562 92.585938 30.945312 91.078125 28.441406 C 90.863281 28.085938 90.488281 27.863281 90.074219 27.847656 C 89.664062 27.835938 89.269531 28.027344 89.03125 28.367188 L 87.203125 30.945312 L 85.203125 29.53125 L 87.03125 26.949219 C 87.269531 26.613281 87.324219 26.175781 87.171875 25.792969 C 87.019531 25.410156 86.683594 25.125 86.28125 25.042969 C 83.417969 24.449219 80.480469 25.605469 78.789062 27.988281 C 77.289062 30.105469 77.035156 32.855469 78.0625 35.199219 L 75.917969 37.996094 L 73.730469 34.734375 L 74.351562 27.347656 C 74.402344 26.726562 73.980469 26.164062 73.367188 26.042969 L 66.570312 24.703125 C 66.085938 24.609375 65.589844 24.816406 65.3125 25.226562 C 65.039062 25.640625 65.039062 26.175781 65.316406 26.585938 L 67.363281 29.640625 L 65.328125 31.003906 L 63.28125 27.953125 C 63.007812 27.539062 62.511719 27.335938 62.023438 27.433594 C 61.539062 27.53125 61.160156 27.910156 61.0625 28.398438 L 59.722656 35.195312 C 59.605469 35.804688 59.960938 36.410156 60.558594 36.597656 L 67.625 38.824219 L 71.199219 44.152344 L 68.773438 47.3125 C 67.609375 46.195312 66.21875 45.296875 64.65625 44.710938 L 61.519531 43.535156 L 61.519531 42.394531 C 61.519531 41.832031 61.136719 41.34375 60.59375 41.207031 L 55.695312 39.980469 C 55.328125 39.890625 54.941406 39.972656 54.644531 40.203125 C 54.445312 40.359375 54.304688 40.570312 54.230469 40.800781 L 52.949219 40.320312 L 52.949219 36.113281 C 54.8125 34.382812 56.226562 32.203125 57.042969 29.773438 L 57.8125 29.582031 C 59.972656 29.042969 61.609375 27.273438 61.972656 25.074219 L 62.292969 23.152344 C 62.460938 22.148438 62.179688 21.125 61.523438 20.351562 C 61.175781 19.941406 60.746094 19.628906 60.269531 19.421875 C 60.285156 19.300781 60.296875 19.179688 60.296875 19.058594 L 60.296875 17.273438 C 60.296875 16.261719 59.746094 15.363281 58.910156 14.882812 L 58.058594 5.679688 C 57.796875 2.875 55.476562 0.757812 52.660156 0.757812 L 38.542969 0.757812 C 35.722656 0.757812 33.402344 2.875 33.144531 5.679688 L 32.292969 14.882812 C 31.453125 15.363281 30.90625 16.261719 30.90625 17.273438 L 30.90625 19.058594 C 30.90625 19.179688 30.917969 19.300781 30.933594 19.421875 C 30.453125 19.628906 30.023438 19.941406 29.679688 20.351562 C 29.019531 21.125 28.738281 22.148438 28.90625 23.152344 L 29.226562 25.074219 C 29.59375 27.273438 31.226562 29.042969 33.390625 29.582031 L 34.15625 29.773438 C 34.976562 32.203125 36.386719 34.382812 38.253906 36.113281 L 38.253906 40.320312 L 36.96875 40.800781 C 36.898438 40.570312 36.753906 40.359375 36.558594 40.203125 C 36.261719 39.972656 35.871094 39.890625 35.507812 39.980469 L 30.609375 41.207031 C 30.0625 41.34375 29.679688 41.832031 29.679688 42.394531 L 29.679688 43.535156 L 26.546875 44.710938 C 21.828125 46.480469 18.660156 51.054688 18.660156 56.089844 L 18.660156 73.007812 C 18.660156 73.683594 19.207031 74.234375 19.882812 74.234375 L 71.316406 74.234375 C 71.992188 74.234375 72.539062 73.683594 72.539062 73.007812 L 72.539062 57.453125 L 76.277344 51.726562 L 78.0625 54.382812 L 77.441406 61.769531 C 77.386719 62.390625 77.8125 62.953125 78.421875 63.074219 L 85.21875 64.414062 C 85.300781 64.429688 85.378906 64.4375 85.457031 64.4375 C 85.863281 64.4375 86.246094 64.234375 86.476562 63.890625 C 86.75 63.476562 86.75 62.941406 86.472656 62.53125 L 84.425781 59.480469 L 86.460938 58.113281 L 88.507812 61.164062 C 88.785156 61.578125 89.28125 61.78125 89.765625 61.683594 C 90.25 61.585938 90.628906 61.207031 90.726562 60.71875 L 92.066406 53.925781 C 92.1875 53.3125 91.828125 52.707031 91.230469 52.519531 Z M 29.679688 53.855469 C 28.917969 54.71875 28.457031 55.851562 28.457031 57.089844 L 28.457031 71.785156 L 21.109375 71.785156 L 21.109375 56.089844 C 21.109375 52.070312 23.640625 48.417969 27.40625 47.003906 L 29.679688 46.152344 Z M 56.621094 42.738281 L 59.070312 43.351562 L 59.070312 52.347656 C 58.679688 52.246094 58.269531 52.191406 57.847656 52.191406 C 57.421875 52.191406 57.011719 52.246094 56.621094 52.347656 Z M 58.648438 21.578125 L 58.882812 21.578125 C 59.289062 21.578125 59.539062 21.800781 59.652344 21.933594 C 59.765625 22.066406 59.945312 22.347656 59.878906 22.75 L 59.558594 24.671875 C 59.378906 25.742188 58.667969 26.628906 57.6875 27.046875 C 57.789062 26.335938 57.847656 25.609375 57.847656 24.871094 L 57.847656 21.792969 C 58.125 21.761719 58.394531 21.691406 58.648438 21.578125 Z M 35.582031 5.90625 C 35.722656 4.367188 36.996094 3.207031 38.542969 3.207031 L 52.660156 3.207031 C 54.203125 3.207031 55.476562 4.367188 55.617188 5.90625 L 56.390625 14.261719 L 53.28125 13.699219 C 52.539062 13.5625 51.789062 13.449219 51.042969 13.351562 C 51.476562 12.515625 51.722656 11.5625 51.722656 10.554688 C 51.722656 7.179688 48.976562 4.433594 45.601562 4.433594 C 42.222656 4.433594 39.476562 7.179688 39.476562 10.554688 C 39.476562 11.5625 39.722656 12.515625 40.15625 13.351562 C 39.410156 13.449219 38.664062 13.5625 37.917969 13.699219 L 34.808594 14.261719 Z M 49.273438 10.554688 C 49.273438 11.535156 48.886719 12.429688 48.257812 13.085938 C 46.488281 12.976562 44.714844 12.976562 42.941406 13.085938 C 42.3125 12.429688 41.925781 11.535156 41.925781 10.554688 C 41.925781 8.53125 43.574219 6.882812 45.601562 6.882812 C 47.625 6.882812 49.273438 8.53125 49.273438 10.554688 Z M 31.640625 24.671875 L 31.320312 22.75 C 31.253906 22.347656 31.433594 22.066406 31.546875 21.933594 C 31.660156 21.800781 31.910156 21.578125 32.316406 21.578125 L 32.542969 21.578125 C 32.800781 21.691406 33.074219 21.765625 33.355469 21.796875 L 33.355469 24.871094 C 33.355469 25.609375 33.410156 26.335938 33.511719 27.046875 C 32.535156 26.628906 31.820312 25.742188 31.640625 24.671875 Z M 33.714844 19.359375 C 33.597656 19.382812 33.515625 19.335938 33.464844 19.292969 C 33.414062 19.253906 33.355469 19.175781 33.355469 19.058594 L 33.355469 17.273438 C 33.355469 17.125 33.460938 16.996094 33.605469 16.972656 L 38.355469 16.105469 C 43.164062 15.234375 48.039062 15.234375 52.84375 16.105469 L 57.59375 16.972656 C 57.738281 16.996094 57.847656 17.125 57.847656 17.273438 L 57.847656 19.058594 C 57.847656 19.175781 57.785156 19.25 57.734375 19.292969 C 57.6875 19.335938 57.601562 19.382812 57.484375 19.359375 L 53.28125 18.597656 C 50.734375 18.132812 48.167969 17.902344 45.601562 17.902344 C 43.035156 17.902344 40.464844 18.132812 37.917969 18.597656 Z M 35.804688 24.871094 L 35.804688 21.46875 L 38.355469 21.003906 C 43.164062 20.132812 48.039062 20.132812 52.84375 21.003906 L 55.398438 21.46875 L 55.398438 24.871094 C 55.398438 30.429688 51.855469 35.34375 46.582031 37.101562 C 45.949219 37.3125 45.25 37.3125 44.617188 37.101562 C 39.347656 35.34375 35.804688 30.429688 35.804688 24.871094 Z M 50.5 37.964844 L 50.5 41.167969 C 50.5 43.871094 48.300781 46.066406 45.601562 46.066406 C 42.898438 46.066406 40.703125 43.871094 40.703125 41.167969 L 40.703125 37.964844 C 41.675781 38.558594 42.726562 39.054688 43.84375 39.425781 C 44.410156 39.613281 45.003906 39.710938 45.601562 39.710938 C 46.195312 39.710938 46.789062 39.613281 47.355469 39.425781 C 48.472656 39.054688 49.523438 38.558594 50.5 37.964844 Z M 37.027344 43.394531 L 38.453125 42.863281 C 39.21875 46.101562 42.132812 48.515625 45.601562 48.515625 C 49.070312 48.515625 51.980469 46.101562 52.75 42.863281 L 54.171875 43.394531 L 54.171875 53.855469 C 53.671875 54.421875 53.296875 55.109375 53.101562 55.863281 L 38.097656 55.863281 C 37.902344 55.109375 37.53125 54.421875 37.027344 53.855469 Z M 32.128906 43.351562 L 34.578125 42.738281 L 34.578125 52.347656 C 34.1875 52.246094 33.777344 52.191406 33.355469 52.191406 C 32.933594 52.191406 32.523438 52.246094 32.128906 52.347656 Z M 33.355469 54.640625 C 34.703125 54.640625 35.804688 55.738281 35.804688 57.089844 C 35.804688 58.441406 34.703125 59.539062 33.355469 59.539062 C 32.003906 59.539062 30.90625 58.441406 30.90625 57.089844 C 30.90625 55.738281 32.003906 54.640625 33.355469 54.640625 Z M 50.5 71.785156 L 40.703125 71.785156 L 40.703125 69.335938 L 50.5 69.335938 Z M 51.722656 66.886719 L 39.476562 66.886719 L 39.476562 64.4375 L 51.722656 64.4375 Z M 60.296875 71.785156 L 52.949219 71.785156 L 52.949219 69.335938 C 53.625 69.335938 54.171875 68.785156 54.171875 68.109375 L 54.171875 63.210938 C 54.171875 62.535156 53.625 61.988281 52.949219 61.988281 L 38.253906 61.988281 C 37.578125 61.988281 37.027344 62.535156 37.027344 63.210938 L 37.027344 68.109375 C 37.027344 68.785156 37.578125 69.335938 38.253906 69.335938 L 38.253906 71.785156 L 30.90625 71.785156 L 30.90625 61.328125 C 31.625 61.746094 32.460938 61.988281 33.355469 61.988281 C 35.632812 61.988281 37.554688 60.425781 38.097656 58.3125 L 53.101562 58.3125 C 53.648438 60.425781 55.566406 61.988281 57.847656 61.988281 C 58.738281 61.988281 59.574219 61.746094 60.296875 61.328125 Z M 57.847656 59.539062 C 56.496094 59.539062 55.398438 58.441406 55.398438 57.089844 C 55.398438 55.738281 56.496094 54.640625 57.847656 54.640625 C 59.195312 54.640625 60.296875 55.738281 60.296875 57.089844 C 60.296875 58.441406 59.195312 59.539062 57.847656 59.539062 Z M 69.421875 37.105469 C 69.265625 36.875 69.039062 36.703125 68.773438 36.617188 L 62.339844 34.59375 L 62.894531 31.769531 L 63.976562 33.382812 C 64.15625 33.652344 64.4375 33.839844 64.757812 33.902344 C 65.074219 33.964844 65.40625 33.898438 65.675781 33.71875 L 69.742188 30.992188 C 70.304688 30.613281 70.457031 29.851562 70.078125 29.292969 L 68.996094 27.679688 L 71.816406 28.234375 L 71.253906 34.957031 C 71.230469 35.234375 71.300781 35.507812 71.457031 35.742188 L 74.34375 40.046875 L 72.773438 42.101562 Z M 70.089844 71.785156 L 62.746094 71.785156 L 62.746094 57.089844 C 62.746094 55.851562 62.28125 54.71875 61.519531 53.855469 L 61.519531 46.152344 L 63.792969 47.003906 C 67.5625 48.417969 70.089844 52.070312 70.089844 56.089844 Z M 72.242188 53.429688 C 71.898438 51.914062 71.265625 50.488281 70.398438 49.222656 L 80.476562 36.078125 C 80.777344 35.683594 80.8125 35.144531 80.5625 34.714844 C 79.589844 33.054688 79.679688 30.972656 80.789062 29.40625 C 81.492188 28.414062 82.523438 27.738281 83.660156 27.46875 L 82.496094 29.113281 C 82.105469 29.664062 82.238281 30.429688 82.789062 30.820312 L 86.785156 33.652344 C 87.050781 33.839844 87.378906 33.914062 87.699219 33.859375 C 88.019531 33.804688 88.304688 33.625 88.492188 33.359375 L 89.65625 31.714844 C 89.78125 32.878906 89.488281 34.074219 88.785156 35.066406 C 87.675781 36.632812 85.738281 37.410156 83.851562 37.042969 C 83.363281 36.949219 82.867188 37.160156 82.59375 37.578125 Z M 88.894531 57.347656 L 87.8125 55.734375 C 87.4375 55.171875 86.675781 55.023438 86.113281 55.398438 L 82.046875 58.125 C 81.777344 58.308594 81.589844 58.589844 81.527344 58.90625 C 81.464844 59.226562 81.53125 59.554688 81.710938 59.824219 L 82.792969 61.4375 L 79.972656 60.882812 L 80.539062 54.160156 C 80.5625 53.882812 80.488281 53.609375 80.335938 53.375 L 77.734375 49.5 L 79.1875 47.269531 L 82.367188 52.011719 C 82.523438 52.242188 82.753906 52.414062 83.019531 52.5 L 89.449219 54.527344 Z M 38.832031 25.066406 C 38.257812 24.710938 38.082031 23.953125 38.4375 23.378906 C 39.148438 22.234375 40.199219 21.578125 41.3125 21.578125 C 42.429688 21.578125 43.480469 22.234375 44.191406 23.378906 C 44.546875 23.953125 44.371094 24.710938 43.796875 25.066406 C 43.597656 25.191406 43.371094 25.25 43.152344 25.25 C 42.742188 25.25 42.34375 25.046875 42.109375 24.671875 C 41.859375 24.265625 41.5625 24.027344 41.3125 24.027344 C 41.066406 24.027344 40.769531 24.265625 40.519531 24.671875 C 40.160156 25.246094 39.40625 25.421875 38.832031 25.066406 Z M 47.007812 23.378906 C 47.722656 22.234375 48.769531 21.578125 49.886719 21.578125 C 51.003906 21.578125 52.050781 22.234375 52.761719 23.378906 C 53.121094 23.953125 52.945312 24.710938 52.371094 25.066406 C 52.167969 25.191406 51.945312 25.25 51.722656 25.25 C 51.316406 25.25 50.914062 25.046875 50.683594 24.671875 C 50.429688 24.265625 50.132812 24.027344 49.886719 24.027344 C 49.640625 24.027344 49.339844 24.265625 49.089844 24.671875 C 48.734375 25.246094 47.976562 25.421875 47.402344 25.066406 C 46.828125 24.710938 46.652344 23.953125 47.007812 23.378906 Z M 45.601562 31.375 C 46.152344 31.375 46.6875 31.097656 47.105469 30.59375 C 47.539062 30.070312 48.308594 30 48.832031 30.429688 C 49.351562 30.863281 49.425781 31.632812 48.992188 32.15625 C 48.101562 33.230469 46.898438 33.824219 45.601562 33.824219 C 44.304688 33.824219 43.097656 33.230469 42.207031 32.15625 C 41.777344 31.632812 41.847656 30.863281 42.371094 30.429688 C 42.890625 30 43.664062 30.070312 44.09375 30.59375 C 44.511719 31.097656 45.046875 31.375 45.601562 31.375 Z M 45.601562 31.375 " clip-rule="nonzero"/></clipPath></defs><g clip-path="url(#8f42d500cb)"><g clip-path="url(#03ea2a2909)"><path fill="#000000" d="M 18.660156 0.757812 L 18.660156 73.910156 L 92.582031 73.910156 L 92.582031 0.757812 Z M 18.660156 0.757812 " fill-opacity="1" fill-rule="nonzero"/></g></g></svg>