<svg xmlns="http://www.w3.org/2000/svg" version="1.1" xmlns:xlink="http://www.w3.org/1999/xlink" xmlns:svgjs="http://svgjs.dev/svgjs" width="1440" height="560" preserveAspectRatio="none" viewBox="0 0 1440 560"><g mask="url(&quot;#SvgjsMask1085&quot;)" fill="none"><path d="M731 20L384 367" stroke-width="8" stroke="url(&quot;#SvgjsLinearGradient1086&quot;)" stroke-linecap="round" class="BottomLeft"></path><path d="M1013 119L1305 -173" stroke-width="8" stroke="url(&quot;#SvgjsLinearGradient1087&quot;)" stroke-linecap="round" class="TopRight"></path><path d="M743 509L1142 110" stroke-width="8" stroke="url(&quot;#SvgjsLinearGradient1088&quot;)" stroke-linecap="round" class="TopRight"></path><path d="M777 230L518 489" stroke-width="10" stroke="url(&quot;#SvgjsLinearGradient1087&quot;)" stroke-linecap="round" class="TopRight"></path><path d="M111 196L-78 385" stroke-width="8" stroke="url(&quot;#SvgjsLinearGradient1089&quot;)" stroke-linecap="round" class="BottomLeft"></path><path d="M354 381L709 26" stroke-width="10" stroke="url(&quot;#SvgjsLinearGradient1086&quot;)" stroke-linecap="round" class="BottomLeft"></path><path d="M648 425L1027 46" stroke-width="8" stroke="url(&quot;#SvgjsLinearGradient1088&quot;)" stroke-linecap="round" class="TopRight"></path><path d="M858 296L442 712" stroke-width="6" stroke="url(&quot;#SvgjsLinearGradient1087&quot;)" stroke-linecap="round" class="TopRight"></path><path d="M137 28L-91 256" stroke-width="8" stroke="url(&quot;#SvgjsLinearGradient1088&quot;)" stroke-linecap="round" class="TopRight"></path><path d="M34 528L-258 820" stroke-width="8" stroke="url(&quot;#SvgjsLinearGradient1087&quot;)" stroke-linecap="round" class="TopRight"></path><path d="M623 453L238 838" stroke-width="6" stroke="url(&quot;#SvgjsLinearGradient1089&quot;)" stroke-linecap="round" class="BottomLeft"></path><path d="M295 498L-88 881" stroke-width="6" stroke="url(&quot;#SvgjsLinearGradient1087&quot;)" stroke-linecap="round" class="TopRight"></path><path d="M193 95L-206 494" stroke-width="10" stroke="url(&quot;#SvgjsLinearGradient1087&quot;)" stroke-linecap="round" class="TopRight"></path><path d="M576 263L957 -118" stroke-width="8" stroke="url(&quot;#SvgjsLinearGradient1089&quot;)" stroke-linecap="round" class="BottomLeft"></path><path d="M1033 475L848 660" stroke-width="8" stroke="url(&quot;#SvgjsLinearGradient1086&quot;)" stroke-linecap="round" class="BottomLeft"></path><path d="M469 87L123 433" stroke-width="8" stroke="url(&quot;#SvgjsLinearGradient1087&quot;)" stroke-linecap="round" class="TopRight"></path><path d="M1165 244L889 520" stroke-width="10" stroke="url(&quot;#SvgjsLinearGradient1086&quot;)" stroke-linecap="round" class="BottomLeft"></path><path d="M682 395L1099 -22" stroke-width="8" stroke="url(&quot;#SvgjsLinearGradient1086&quot;)" stroke-linecap="round" class="BottomLeft"></path><path d="M32 12L-189 233" stroke-width="8" stroke="url(&quot;#SvgjsLinearGradient1088&quot;)" stroke-linecap="round" class="TopRight"></path><path d="M1377 258L976 659" stroke-width="8" stroke="url(&quot;#SvgjsLinearGradient1087&quot;)" stroke-linecap="round" class="TopRight"></path><path d="M69 289L-226 584" stroke-width="10" stroke="url(&quot;#SvgjsLinearGradient1089&quot;)" stroke-linecap="round" class="BottomLeft"></path><path d="M978 457L781 654" stroke-width="10" stroke="url(&quot;#SvgjsLinearGradient1089&quot;)" stroke-linecap="round" class="BottomLeft"></path><path d="M634 235L922 -53" stroke-width="10" stroke="url(&quot;#SvgjsLinearGradient1086&quot;)" stroke-linecap="round" class="BottomLeft"></path><path d="M673 307L483 497" stroke-width="10" stroke="url(&quot;#SvgjsLinearGradient1086&quot;)" stroke-linecap="round" class="BottomLeft"></path><path d="M418 60L767 -289" stroke-width="10" stroke="url(&quot;#SvgjsLinearGradient1087&quot;)" stroke-linecap="round" class="TopRight"></path><path d="M1011 262L1182 91" stroke-width="6" stroke="url(&quot;#SvgjsLinearGradient1086&quot;)" stroke-linecap="round" class="BottomLeft"></path><path d="M1226 490L1032 684" stroke-width="6" stroke="url(&quot;#SvgjsLinearGradient1088&quot;)" stroke-linecap="round" class="TopRight"></path><path d="M1436 68L1172 332" stroke-width="6" stroke="url(&quot;#SvgjsLinearGradient1089&quot;)" stroke-linecap="round" class="BottomLeft"></path><path d="M716 142L530 328" stroke-width="6" stroke="url(&quot;#SvgjsLinearGradient1088&quot;)" stroke-linecap="round" class="TopRight"></path><path d="M1210 103L948 365" stroke-width="8" stroke="url(&quot;#SvgjsLinearGradient1088&quot;)" stroke-linecap="round" class="TopRight"></path><path d="M776 69L1136 -291" stroke-width="8" stroke="url(&quot;#SvgjsLinearGradient1086&quot;)" stroke-linecap="round" class="BottomLeft"></path><path d="M1084 431L1246 269" stroke-width="8" stroke="url(&quot;#SvgjsLinearGradient1087&quot;)" stroke-linecap="round" class="TopRight"></path><path d="M421 547L738 230" stroke-width="8" stroke="url(&quot;#SvgjsLinearGradient1087&quot;)" stroke-linecap="round" class="TopRight"></path><path d="M725 353L401 677" stroke-width="8" stroke="url(&quot;#SvgjsLinearGradient1087&quot;)" stroke-linecap="round" class="TopRight"></path><path d="M74 145L-286 505" stroke-width="8" stroke="url(&quot;#SvgjsLinearGradient1088&quot;)" stroke-linecap="round" class="TopRight"></path><path d="M1318 428L1156 590" stroke-width="6" stroke="url(&quot;#SvgjsLinearGradient1089&quot;)" stroke-linecap="round" class="BottomLeft"></path><path d="M1125 417L1446 96" stroke-width="6" stroke="url(&quot;#SvgjsLinearGradient1086&quot;)" stroke-linecap="round" class="BottomLeft"></path><path d="M72 371L421 22" stroke-width="8" stroke="url(&quot;#SvgjsLinearGradient1089&quot;)" stroke-linecap="round" class="BottomLeft"></path><path d="M28 137L204 -39" stroke-width="10" stroke="url(&quot;#SvgjsLinearGradient1086&quot;)" stroke-linecap="round" class="BottomLeft"></path></g><defs><mask id="SvgjsMask1085"><rect width="1440" height="560" fill="#ffffff"></rect></mask><linearGradient x1="100%" y1="0%" x2="0%" y2="100%" id="SvgjsLinearGradient1086"><stop stop-color="rgba(171, 196, 255, 0)" offset="0"></stop><stop stop-color="rgba(171, 196, 255, 0.3137254901960784)" offset="1"></stop></linearGradient><linearGradient x1="0%" y1="100%" x2="100%" y2="0%" id="SvgjsLinearGradient1087"><stop stop-color="rgba(0, 0, 0, 0)" offset="0"></stop><stop stop-color="rgba(0, 0, 0, 0.3137254901960784)" offset="1"></stop></linearGradient><linearGradient x1="0%" y1="100%" x2="100%" y2="0%" id="SvgjsLinearGradient1088"><stop stop-color="rgba(171, 196, 255, 0)" offset="0"></stop><stop stop-color="rgba(171, 196, 255, 0.3137254901960784)" offset="1"></stop></linearGradient><linearGradient x1="100%" y1="0%" x2="0%" y2="100%" id="SvgjsLinearGradient1089"><stop stop-color="rgba(0, 0, 0, 0)" offset="0"></stop><stop stop-color="rgba(0, 0, 0, 0.3137254901960784)" offset="1"></stop></linearGradient></defs></svg>