<svg xmlns="http://www.w3.org/2000/svg" xmlns:xlink="http://www.w3.org/1999/xlink" width="150" zoomAndPan="magnify" viewBox="0 0 112.5 74.999997" height="100" preserveAspectRatio="xMidYMid meet" version="1.0"><defs><clipPath id="d24dbc6ba9"><path d="M 19.972656 1.097656 L 93 1.097656 L 93 74 L 19.972656 74 Z M 19.972656 1.097656 " clip-rule="nonzero"/></clipPath><clipPath id="05b6805292"><path d="M 40.601562 15.660156 L 52.734375 15.660156 C 53.40625 15.660156 53.949219 15.117188 53.949219 14.445312 L 53.949219 10.804688 C 53.949219 10.136719 53.40625 9.59375 52.734375 9.59375 L 40.601562 9.59375 C 39.929688 9.59375 39.386719 10.136719 39.386719 10.804688 L 39.386719 14.445312 C 39.386719 15.117188 39.929688 15.660156 40.601562 15.660156 Z M 41.8125 12.019531 L 51.519531 12.019531 L 51.519531 13.234375 L 41.8125 13.234375 Z M 41.8125 19.300781 C 43.097656 19.300781 44.292969 19.886719 45.175781 20.953125 C 45.601562 21.46875 45.53125 22.234375 45.015625 22.660156 C 44.789062 22.847656 44.515625 22.941406 44.242188 22.941406 C 43.890625 22.941406 43.546875 22.789062 43.304688 22.5 C 42.894531 22 42.363281 21.726562 41.8125 21.726562 C 41.265625 21.726562 40.734375 22 40.320312 22.5 C 39.894531 23.015625 39.128906 23.089844 38.613281 22.660156 C 38.097656 22.234375 38.023438 21.46875 38.453125 20.953125 C 39.335938 19.886719 40.53125 19.300781 41.8125 19.300781 Z M 51.519531 19.300781 C 52.804688 19.300781 54 19.886719 54.882812 20.953125 C 55.308594 21.46875 55.238281 22.234375 54.722656 22.660156 C 54.496094 22.847656 54.222656 22.941406 53.949219 22.941406 C 53.597656 22.941406 53.253906 22.789062 53.011719 22.5 C 52.597656 22 52.070312 21.726562 51.519531 21.726562 C 50.972656 21.726562 50.441406 22 50.027344 22.5 C 49.601562 23.015625 48.835938 23.089844 48.320312 22.660156 C 47.804688 22.234375 47.730469 21.46875 48.160156 20.953125 C 49.042969 19.886719 50.238281 19.300781 51.519531 19.300781 Z M 43.304688 29.78125 C 42.878906 29.265625 42.949219 28.5 43.46875 28.070312 C 43.984375 27.644531 44.746094 27.714844 45.175781 28.234375 C 45.589844 28.730469 46.117188 29.007812 46.667969 29.007812 C 47.214844 29.007812 47.746094 28.730469 48.160156 28.234375 C 48.585938 27.714844 49.351562 27.644531 49.867188 28.070312 C 50.382812 28.5 50.457031 29.265625 50.027344 29.78125 C 49.144531 30.847656 47.953125 31.433594 46.667969 31.433594 C 45.382812 31.433594 44.1875 30.847656 43.304688 29.78125 Z M 90.046875 47.207031 L 71.382812 47.207031 C 69.609375 44.175781 66.742188 41.820312 63.195312 40.710938 L 53.949219 37.820312 L 53.949219 33.9375 C 56.1875 31.859375 57.765625 29.128906 58.4375 26.101562 L 58.765625 26.019531 C 60.910156 25.484375 62.527344 23.730469 62.890625 21.550781 L 63.207031 19.648438 C 63.375 18.652344 63.09375 17.640625 62.445312 16.871094 C 62.105469 16.472656 61.691406 16.164062 61.226562 15.957031 L 61.226562 8.988281 C 61.226562 4.640625 57.6875 1.097656 53.335938 1.097656 L 40 1.097656 C 35.648438 1.097656 32.105469 4.640625 32.105469 8.988281 L 32.105469 15.957031 C 31.644531 16.164062 31.226562 16.472656 30.890625 16.871094 L 23.613281 16.871094 C 22.945312 16.871094 22.402344 17.417969 22.402344 18.085938 C 22.402344 18.757812 22.945312 19.300781 23.613281 19.300781 L 30.085938 19.300781 C 30.09375 19.414062 30.105469 19.53125 30.125 19.648438 L 30.445312 21.550781 C 30.808594 23.730469 32.425781 25.484375 34.566406 26.019531 L 34.898438 26.101562 C 35.570312 29.128906 37.148438 31.855469 39.386719 33.9375 L 39.386719 37.820312 L 30.140625 40.710938 C 24.058594 42.613281 19.972656 48.167969 19.972656 54.539062 L 19.972656 70.453125 C 19.972656 72.355469 21.519531 73.902344 23.421875 73.902344 L 91.5625 73.902344 C 92.230469 73.902344 92.773438 73.359375 92.773438 72.6875 L 92.773438 49.9375 C 92.773438 48.429688 91.550781 47.207031 90.046875 47.207031 Z M 60.015625 19.300781 C 60.328125 19.300781 60.609375 19.179688 60.824219 18.988281 C 60.832031 19.066406 60.832031 19.15625 60.816406 19.25 L 60.496094 21.152344 C 60.328125 22.160156 59.683594 23.007812 58.785156 23.441406 C 58.796875 23.226562 58.800781 23.011719 58.800781 22.796875 L 58.800781 19.300781 Z M 32.835938 21.152344 L 32.527344 19.300781 L 34.535156 19.300781 L 34.535156 22.796875 C 34.535156 23.011719 34.539062 23.226562 34.546875 23.441406 C 33.652344 23.007812 33.003906 22.160156 32.835938 21.152344 Z M 34.535156 16.871094 L 34.535156 8.988281 C 34.535156 5.976562 36.984375 3.527344 39.996094 3.527344 L 53.335938 3.527344 C 56.351562 3.527344 58.800781 5.976562 58.800781 8.988281 L 58.800781 16.871094 Z M 36.960938 22.796875 L 36.960938 19.300781 L 56.375 19.300781 L 56.375 22.796875 C 56.375 28.304688 52.863281 33.175781 47.640625 34.914062 C 47.011719 35.125 46.320312 35.125 45.695312 34.914062 C 40.472656 33.175781 36.960938 28.304688 36.960938 22.796875 Z M 51.519531 35.769531 L 51.519531 38.714844 C 51.519531 41.390625 49.34375 43.566406 46.667969 43.566406 C 43.992188 43.566406 41.8125 41.390625 41.8125 38.714844 L 41.8125 35.769531 C 42.78125 36.359375 43.820312 36.847656 44.925781 37.21875 C 45.488281 37.40625 46.078125 37.5 46.667969 37.5 C 47.257812 37.5 47.847656 37.40625 48.40625 37.21875 C 49.515625 36.847656 50.554688 36.359375 51.519531 35.769531 Z M 43.027344 71.472656 L 23.421875 71.472656 C 22.859375 71.472656 22.402344 71.015625 22.402344 70.453125 L 22.402344 64.195312 L 43.027344 64.195312 Z M 51.519531 71.472656 L 45.453125 71.472656 L 45.453125 66.621094 L 48.804688 66.621094 C 50.300781 66.621094 51.519531 67.839844 51.519531 69.335938 Z M 56.375 71.472656 L 53.949219 71.472656 L 53.949219 69.335938 C 53.949219 69.238281 53.945312 69.144531 53.9375 69.046875 L 56.375 69.046875 Z M 56.375 49.9375 L 56.375 66.621094 L 53.167969 66.621094 C 52.257812 65.164062 50.644531 64.195312 48.804688 64.195312 L 45.453125 64.195312 L 45.453125 62.980469 C 45.453125 62.308594 44.910156 61.765625 44.242188 61.765625 L 32.105469 61.765625 L 32.105469 59.339844 C 32.105469 58.671875 31.5625 58.128906 30.894531 58.128906 C 30.222656 58.128906 29.679688 58.671875 29.679688 59.339844 L 29.679688 61.765625 L 22.402344 61.765625 L 22.402344 54.539062 C 22.402344 49.234375 25.800781 44.609375 30.863281 43.027344 L 39.566406 40.308594 C 40.292969 43.558594 43.203125 45.992188 46.667969 45.992188 C 50.132812 45.992188 53.039062 43.558594 53.769531 40.308594 L 62.472656 43.027344 C 64.925781 43.792969 66.988281 45.277344 68.464844 47.207031 L 59.105469 47.207031 C 57.597656 47.207031 56.375 48.429688 56.375 49.9375 Z M 90.347656 71.472656 L 58.800781 71.472656 L 58.800781 49.9375 C 58.800781 49.769531 58.9375 49.632812 59.105469 49.632812 L 90.046875 49.632812 C 90.210938 49.632812 90.347656 49.769531 90.347656 49.9375 Z M 74.574219 54.488281 C 71.230469 54.488281 68.507812 56.664062 68.507812 59.339844 C 68.507812 62.015625 71.230469 64.195312 74.574219 64.195312 C 77.921875 64.195312 80.640625 62.015625 80.640625 59.339844 C 80.640625 56.664062 77.921875 54.488281 74.574219 54.488281 Z M 74.574219 61.765625 C 72.601562 61.765625 70.933594 60.65625 70.933594 59.339844 C 70.933594 58.023438 72.601562 56.914062 74.574219 56.914062 C 76.546875 56.914062 78.214844 58.023438 78.214844 59.339844 C 78.214844 60.65625 76.546875 61.765625 74.574219 61.765625 Z M 74.574219 61.765625 " clip-rule="nonzero"/></clipPath></defs><g clip-path="url(#d24dbc6ba9)"><g clip-path="url(#05b6805292)"><path fill="#000000" d="M 19.972656 1.097656 L 19.972656 73.902344 L 92.773438 73.902344 L 92.773438 1.097656 Z M 19.972656 1.097656 " fill-opacity="1" fill-rule="nonzero"/></g></g></svg>