<svg xmlns="http://www.w3.org/2000/svg" xmlns:xlink="http://www.w3.org/1999/xlink" width="180" zoomAndPan="magnify" viewBox="0 0 135 67.499998" height="90" preserveAspectRatio="xMidYMid meet" version="1.0"><defs><g/><clipPath id="850d3e6d8e"><path d="M 77.921875 60.304688 L 131.527344 60.304688 L 131.527344 65.515625 L 77.921875 65.515625 Z M 77.921875 60.304688 " clip-rule="nonzero"/></clipPath><clipPath id="92e0c76dc4"><path d="M 103 29 L 129 29 L 129 45 L 103 45 Z M 103 29 " clip-rule="nonzero"/></clipPath><clipPath id="763cb1c7e0"><path d="M 97.597656 48.101562 L 104.566406 24.539062 L 130.265625 32.140625 L 123.300781 55.699219 Z M 97.597656 48.101562 " clip-rule="nonzero"/></clipPath><clipPath id="5e6367fc98"><path d="M 97.597656 48.101562 L 104.566406 24.539062 L 130.265625 32.140625 L 123.300781 55.699219 Z M 97.597656 48.101562 " clip-rule="nonzero"/></clipPath><clipPath id="60acf7cb05"><path d="M 97.597656 48.101562 L 104.566406 24.539062 L 130.265625 32.140625 L 123.300781 55.699219 Z M 97.597656 48.101562 " clip-rule="nonzero"/></clipPath><clipPath id="150bbba039"><path d="M 99 39 L 109 39 L 109 49 L 99 49 Z M 99 39 " clip-rule="nonzero"/></clipPath><clipPath id="068747cfd4"><path d="M 97.597656 48.101562 L 104.566406 24.539062 L 130.265625 32.140625 L 123.300781 55.699219 Z M 97.597656 48.101562 " clip-rule="nonzero"/></clipPath><clipPath id="a51c5f7439"><path d="M 97.597656 48.101562 L 104.566406 24.539062 L 130.265625 32.140625 L 123.300781 55.699219 Z M 97.597656 48.101562 " clip-rule="nonzero"/></clipPath><clipPath id="58f387907e"><path d="M 97.597656 48.101562 L 104.566406 24.539062 L 130.265625 32.140625 L 123.300781 55.699219 Z M 97.597656 48.101562 " clip-rule="nonzero"/></clipPath><clipPath id="6861c264a8"><path d="M 100 40 L 108 40 L 108 50 L 100 50 Z M 100 40 " clip-rule="nonzero"/></clipPath><clipPath id="583f56c482"><path d="M 97.597656 48.101562 L 104.566406 24.539062 L 130.265625 32.140625 L 123.300781 55.699219 Z M 97.597656 48.101562 " clip-rule="nonzero"/></clipPath><clipPath id="edf4d112f8"><path d="M 97.597656 48.101562 L 104.566406 24.539062 L 130.265625 32.140625 L 123.300781 55.699219 Z M 97.597656 48.101562 " clip-rule="nonzero"/></clipPath><clipPath id="ab925c621e"><path d="M 97.597656 48.101562 L 104.566406 24.539062 L 130.265625 32.140625 L 123.300781 55.699219 Z M 97.597656 48.101562 " clip-rule="nonzero"/></clipPath><clipPath id="2656c036f9"><path d="M 104 30 L 130 30 L 130 43 L 104 43 Z M 104 30 " clip-rule="nonzero"/></clipPath><clipPath id="010c3156ae"><path d="M 97.597656 48.101562 L 104.566406 24.539062 L 130.265625 32.140625 L 123.300781 55.699219 Z M 97.597656 48.101562 " clip-rule="nonzero"/></clipPath><clipPath id="4bfb09d90b"><path d="M 97.597656 48.101562 L 104.566406 24.539062 L 130.265625 32.140625 L 123.300781 55.699219 Z M 97.597656 48.101562 " clip-rule="nonzero"/></clipPath><clipPath id="def974a850"><path d="M 97.597656 48.101562 L 104.566406 24.539062 L 130.265625 32.140625 L 123.300781 55.699219 Z M 97.597656 48.101562 " clip-rule="nonzero"/></clipPath></defs><g clip-path="url(#850d3e6d8e)"><path fill="#ffe6ab" d="M 129.960938 60.324219 L 129.914062 60.320312 C 125.527344 60.578125 122.664062 60.714844 121.332031 60.722656 C 120.6875 60.773438 116.503906 60.6875 108.78125 60.46875 C 106.050781 60.445312 103.527344 60.480469 101.214844 60.570312 C 94.371094 60.789062 86.835938 61.285156 78.617188 62.058594 L 77.925781 65.371094 C 77.988281 65.636719 78.21875 65.769531 78.621094 65.777344 C 84.097656 65.097656 88.621094 64.683594 92.183594 64.539062 C 93.914062 64.46875 96.367188 64.402344 99.542969 64.335938 C 110.203125 64.246094 119.332031 64.105469 126.933594 63.917969 C 128.25 63.832031 129.542969 63.027344 130.8125 61.496094 C 131.292969 60.953125 131.445312 60.6875 131.265625 60.703125 C 131.015625 60.46875 130.582031 60.34375 129.960938 60.324219 " fill-opacity="1" fill-rule="nonzero"/></g><g fill="#000000" fill-opacity="1"><g transform="translate(1.389708, 16.870866)"><g><path d="M 14.9375 -10.921875 L 11.765625 0 L 10.171875 0 L 7.625 -8.796875 L 5 0 L 3.421875 0.015625 L 0.359375 -10.921875 L 1.875 -10.921875 L 4.265625 -1.65625 L 6.890625 -10.921875 L 8.5 -10.921875 L 11 -1.6875 L 13.40625 -10.921875 Z M 14.9375 -10.921875 "/></g></g></g><g fill="#000000" fill-opacity="1"><g transform="translate(16.68267, 16.870866)"><g><path d="M 9.046875 -4.625 C 9.046875 -4.351562 9.03125 -4.066406 9 -3.765625 L 2.125 -3.765625 C 2.175781 -2.910156 2.46875 -2.242188 3 -1.765625 C 3.53125 -1.296875 4.171875 -1.0625 4.921875 -1.0625 C 5.535156 -1.0625 6.046875 -1.203125 6.453125 -1.484375 C 6.867188 -1.773438 7.160156 -2.164062 7.328125 -2.65625 L 8.875 -2.65625 C 8.644531 -1.820312 8.179688 -1.144531 7.484375 -0.625 C 6.796875 -0.113281 5.941406 0.140625 4.921875 0.140625 C 4.109375 0.140625 3.378906 -0.0390625 2.734375 -0.40625 C 2.085938 -0.769531 1.582031 -1.289062 1.21875 -1.96875 C 0.851562 -2.644531 0.671875 -3.425781 0.671875 -4.3125 C 0.671875 -5.195312 0.847656 -5.972656 1.203125 -6.640625 C 1.554688 -7.304688 2.054688 -7.820312 2.703125 -8.1875 C 3.347656 -8.550781 4.085938 -8.734375 4.921875 -8.734375 C 5.734375 -8.734375 6.453125 -8.550781 7.078125 -8.1875 C 7.710938 -7.832031 8.195312 -7.34375 8.53125 -6.71875 C 8.875 -6.101562 9.046875 -5.40625 9.046875 -4.625 Z M 7.5625 -4.921875 C 7.5625 -5.460938 7.441406 -5.925781 7.203125 -6.3125 C 6.960938 -6.707031 6.632812 -7.003906 6.21875 -7.203125 C 5.8125 -7.410156 5.359375 -7.515625 4.859375 -7.515625 C 4.140625 -7.515625 3.523438 -7.285156 3.015625 -6.828125 C 2.503906 -6.367188 2.210938 -5.734375 2.140625 -4.921875 Z M 7.5625 -4.921875 "/></g></g></g><g fill="#000000" fill-opacity="1"><g transform="translate(26.397466, 16.870866)"><g/></g></g><g fill="#000000" fill-opacity="1"><g transform="translate(30.581093, 16.870866)"><g><path d="M 2.640625 -9.765625 L 2.640625 -6.109375 L 6.609375 -6.109375 L 6.609375 -4.9375 L 2.640625 -4.9375 L 2.640625 -1.171875 L 7.078125 -1.171875 L 7.078125 0 L 1.203125 0 L 1.203125 -10.9375 L 7.078125 -10.9375 L 7.078125 -9.765625 Z M 2.640625 -9.765625 "/></g></g></g><g fill="#000000" fill-opacity="1"><g transform="translate(38.619301, 16.870866)"><g><path d="M 5.390625 -8.75 C 6.429688 -8.75 7.273438 -8.429688 7.921875 -7.796875 C 8.578125 -7.160156 8.90625 -6.25 8.90625 -5.0625 L 8.90625 0 L 7.484375 0 L 7.484375 -4.859375 C 7.484375 -5.710938 7.269531 -6.363281 6.84375 -6.8125 C 6.414062 -7.269531 5.832031 -7.5 5.09375 -7.5 C 4.34375 -7.5 3.742188 -7.265625 3.296875 -6.796875 C 2.859375 -6.328125 2.640625 -5.644531 2.640625 -4.75 L 2.640625 0 L 1.203125 0 L 1.203125 -8.59375 L 2.640625 -8.59375 L 2.640625 -7.359375 C 2.921875 -7.804688 3.300781 -8.148438 3.78125 -8.390625 C 4.269531 -8.628906 4.804688 -8.75 5.390625 -8.75 Z M 5.390625 -8.75 "/></g></g></g><g fill="#000000" fill-opacity="1"><g transform="translate(48.647474, 16.870866)"><g><path d="M 4.75 -8.734375 C 5.488281 -8.734375 6.132812 -8.566406 6.6875 -8.234375 C 7.25 -7.910156 7.671875 -7.503906 7.953125 -7.015625 L 7.953125 -8.59375 L 9.390625 -8.59375 L 9.390625 0.1875 C 9.390625 0.96875 9.222656 1.664062 8.890625 2.28125 C 8.554688 2.894531 8.078125 3.375 7.453125 3.71875 C 6.828125 4.0625 6.101562 4.234375 5.28125 4.234375 C 4.15625 4.234375 3.210938 3.96875 2.453125 3.4375 C 1.703125 2.90625 1.257812 2.175781 1.125 1.25 L 2.53125 1.25 C 2.695312 1.769531 3.023438 2.191406 3.515625 2.515625 C 4.003906 2.835938 4.59375 3 5.28125 3 C 6.0625 3 6.703125 2.75 7.203125 2.25 C 7.703125 1.757812 7.953125 1.070312 7.953125 0.1875 L 7.953125 -1.609375 C 7.660156 -1.109375 7.238281 -0.691406 6.6875 -0.359375 C 6.132812 -0.0234375 5.488281 0.140625 4.75 0.140625 C 3.988281 0.140625 3.296875 -0.046875 2.671875 -0.421875 C 2.046875 -0.796875 1.554688 -1.320312 1.203125 -2 C 0.847656 -2.6875 0.671875 -3.460938 0.671875 -4.328125 C 0.671875 -5.203125 0.847656 -5.96875 1.203125 -6.625 C 1.554688 -7.289062 2.046875 -7.804688 2.671875 -8.171875 C 3.296875 -8.546875 3.988281 -8.734375 4.75 -8.734375 Z M 7.953125 -4.3125 C 7.953125 -4.957031 7.816406 -5.519531 7.546875 -6 C 7.285156 -6.476562 6.929688 -6.84375 6.484375 -7.09375 C 6.046875 -7.351562 5.5625 -7.484375 5.03125 -7.484375 C 4.5 -7.484375 4.015625 -7.359375 3.578125 -7.109375 C 3.140625 -6.859375 2.785156 -6.492188 2.515625 -6.015625 C 2.253906 -5.535156 2.125 -4.972656 2.125 -4.328125 C 2.125 -3.671875 2.253906 -3.097656 2.515625 -2.609375 C 2.785156 -2.117188 3.140625 -1.742188 3.578125 -1.484375 C 4.015625 -1.234375 4.5 -1.109375 5.03125 -1.109375 C 5.5625 -1.109375 6.046875 -1.234375 6.484375 -1.484375 C 6.929688 -1.742188 7.285156 -2.117188 7.546875 -2.609375 C 7.816406 -3.097656 7.953125 -3.664062 7.953125 -4.3125 Z M 7.953125 -4.3125 "/></g></g></g><g fill="#000000" fill-opacity="1"><g transform="translate(59.239737, 16.870866)"><g><path d="M 1.9375 -9.984375 C 1.664062 -9.984375 1.4375 -10.078125 1.25 -10.265625 C 1.0625 -10.453125 0.96875 -10.679688 0.96875 -10.953125 C 0.96875 -11.222656 1.0625 -11.453125 1.25 -11.640625 C 1.4375 -11.828125 1.664062 -11.921875 1.9375 -11.921875 C 2.195312 -11.921875 2.421875 -11.828125 2.609375 -11.640625 C 2.796875 -11.453125 2.890625 -11.222656 2.890625 -10.953125 C 2.890625 -10.679688 2.796875 -10.453125 2.609375 -10.265625 C 2.421875 -10.078125 2.195312 -9.984375 1.9375 -9.984375 Z M 2.640625 -8.59375 L 2.640625 0 L 1.203125 0 L 1.203125 -8.59375 Z M 2.640625 -8.59375 "/></g></g></g><g fill="#000000" fill-opacity="1"><g transform="translate(63.094318, 16.870866)"><g><path d="M 5.390625 -8.75 C 6.429688 -8.75 7.273438 -8.429688 7.921875 -7.796875 C 8.578125 -7.160156 8.90625 -6.25 8.90625 -5.0625 L 8.90625 0 L 7.484375 0 L 7.484375 -4.859375 C 7.484375 -5.710938 7.269531 -6.363281 6.84375 -6.8125 C 6.414062 -7.269531 5.832031 -7.5 5.09375 -7.5 C 4.34375 -7.5 3.742188 -7.265625 3.296875 -6.796875 C 2.859375 -6.328125 2.640625 -5.644531 2.640625 -4.75 L 2.640625 0 L 1.203125 0 L 1.203125 -8.59375 L 2.640625 -8.59375 L 2.640625 -7.359375 C 2.921875 -7.804688 3.300781 -8.148438 3.78125 -8.390625 C 4.269531 -8.628906 4.804688 -8.75 5.390625 -8.75 Z M 5.390625 -8.75 "/></g></g></g><g fill="#000000" fill-opacity="1"><g transform="translate(73.122492, 16.870866)"><g><path d="M 9.046875 -4.625 C 9.046875 -4.351562 9.03125 -4.066406 9 -3.765625 L 2.125 -3.765625 C 2.175781 -2.910156 2.46875 -2.242188 3 -1.765625 C 3.53125 -1.296875 4.171875 -1.0625 4.921875 -1.0625 C 5.535156 -1.0625 6.046875 -1.203125 6.453125 -1.484375 C 6.867188 -1.773438 7.160156 -2.164062 7.328125 -2.65625 L 8.875 -2.65625 C 8.644531 -1.820312 8.179688 -1.144531 7.484375 -0.625 C 6.796875 -0.113281 5.941406 0.140625 4.921875 0.140625 C 4.109375 0.140625 3.378906 -0.0390625 2.734375 -0.40625 C 2.085938 -0.769531 1.582031 -1.289062 1.21875 -1.96875 C 0.851562 -2.644531 0.671875 -3.425781 0.671875 -4.3125 C 0.671875 -5.195312 0.847656 -5.972656 1.203125 -6.640625 C 1.554688 -7.304688 2.054688 -7.820312 2.703125 -8.1875 C 3.347656 -8.550781 4.085938 -8.734375 4.921875 -8.734375 C 5.734375 -8.734375 6.453125 -8.550781 7.078125 -8.1875 C 7.710938 -7.832031 8.195312 -7.34375 8.53125 -6.71875 C 8.875 -6.101562 9.046875 -5.40625 9.046875 -4.625 Z M 7.5625 -4.921875 C 7.5625 -5.460938 7.441406 -5.925781 7.203125 -6.3125 C 6.960938 -6.707031 6.632812 -7.003906 6.21875 -7.203125 C 5.8125 -7.410156 5.359375 -7.515625 4.859375 -7.515625 C 4.140625 -7.515625 3.523438 -7.285156 3.015625 -6.828125 C 2.503906 -6.367188 2.210938 -5.734375 2.140625 -4.921875 Z M 7.5625 -4.921875 "/></g></g></g><g fill="#000000" fill-opacity="1"><g transform="translate(82.837288, 16.870866)"><g><path d="M 9.046875 -4.625 C 9.046875 -4.351562 9.03125 -4.066406 9 -3.765625 L 2.125 -3.765625 C 2.175781 -2.910156 2.46875 -2.242188 3 -1.765625 C 3.53125 -1.296875 4.171875 -1.0625 4.921875 -1.0625 C 5.535156 -1.0625 6.046875 -1.203125 6.453125 -1.484375 C 6.867188 -1.773438 7.160156 -2.164062 7.328125 -2.65625 L 8.875 -2.65625 C 8.644531 -1.820312 8.179688 -1.144531 7.484375 -0.625 C 6.796875 -0.113281 5.941406 0.140625 4.921875 0.140625 C 4.109375 0.140625 3.378906 -0.0390625 2.734375 -0.40625 C 2.085938 -0.769531 1.582031 -1.289062 1.21875 -1.96875 C 0.851562 -2.644531 0.671875 -3.425781 0.671875 -4.3125 C 0.671875 -5.195312 0.847656 -5.972656 1.203125 -6.640625 C 1.554688 -7.304688 2.054688 -7.820312 2.703125 -8.1875 C 3.347656 -8.550781 4.085938 -8.734375 4.921875 -8.734375 C 5.734375 -8.734375 6.453125 -8.550781 7.078125 -8.1875 C 7.710938 -7.832031 8.195312 -7.34375 8.53125 -6.71875 C 8.875 -6.101562 9.046875 -5.40625 9.046875 -4.625 Z M 7.5625 -4.921875 C 7.5625 -5.460938 7.441406 -5.925781 7.203125 -6.3125 C 6.960938 -6.707031 6.632812 -7.003906 6.21875 -7.203125 C 5.8125 -7.410156 5.359375 -7.515625 4.859375 -7.515625 C 4.140625 -7.515625 3.523438 -7.285156 3.015625 -6.828125 C 2.503906 -6.367188 2.210938 -5.734375 2.140625 -4.921875 Z M 7.5625 -4.921875 "/></g></g></g><g fill="#000000" fill-opacity="1"><g transform="translate(92.552085, 16.870866)"><g><path d="M 2.640625 -7.1875 C 2.890625 -7.6875 3.242188 -8.070312 3.703125 -8.34375 C 4.171875 -8.613281 4.738281 -8.75 5.40625 -8.75 L 5.40625 -7.265625 L 5.03125 -7.265625 C 3.4375 -7.265625 2.640625 -6.398438 2.640625 -4.671875 L 2.640625 0 L 1.203125 0 L 1.203125 -8.59375 L 2.640625 -8.59375 Z M 2.640625 -7.1875 "/></g></g></g><g fill="#000000" fill-opacity="1"><g transform="translate(1.389708, 38.809592)"><g><path d="M 7.9375 -10.921875 L 7.9375 -9.765625 L 4.953125 -9.765625 L 4.953125 0 L 3.53125 0 L 3.53125 -9.765625 L 0.53125 -9.765625 L 0.53125 -10.921875 Z M 7.9375 -10.921875 "/></g></g></g><g fill="#000000" fill-opacity="1"><g transform="translate(9.866643, 38.809592)"><g><path d="M 4.953125 0.140625 C 4.148438 0.140625 3.421875 -0.0390625 2.765625 -0.40625 C 2.109375 -0.769531 1.59375 -1.289062 1.21875 -1.96875 C 0.851562 -2.644531 0.671875 -3.425781 0.671875 -4.3125 C 0.671875 -5.1875 0.859375 -5.957031 1.234375 -6.625 C 1.617188 -7.300781 2.140625 -7.820312 2.796875 -8.1875 C 3.460938 -8.550781 4.203125 -8.734375 5.015625 -8.734375 C 5.828125 -8.734375 6.5625 -8.550781 7.21875 -8.1875 C 7.882812 -7.820312 8.40625 -7.304688 8.78125 -6.640625 C 9.164062 -5.972656 9.359375 -5.195312 9.359375 -4.3125 C 9.359375 -3.425781 9.160156 -2.644531 8.765625 -1.96875 C 8.378906 -1.289062 7.847656 -0.769531 7.171875 -0.40625 C 6.503906 -0.0390625 5.765625 0.140625 4.953125 0.140625 Z M 4.953125 -1.109375 C 5.460938 -1.109375 5.941406 -1.226562 6.390625 -1.46875 C 6.835938 -1.707031 7.203125 -2.066406 7.484375 -2.546875 C 7.765625 -3.035156 7.90625 -3.625 7.90625 -4.3125 C 7.90625 -5 7.765625 -5.582031 7.484375 -6.0625 C 7.210938 -6.539062 6.859375 -6.894531 6.421875 -7.125 C 5.984375 -7.363281 5.507812 -7.484375 5 -7.484375 C 4.476562 -7.484375 4 -7.363281 3.5625 -7.125 C 3.132812 -6.894531 2.785156 -6.539062 2.515625 -6.0625 C 2.253906 -5.582031 2.125 -5 2.125 -4.3125 C 2.125 -3.613281 2.253906 -3.019531 2.515625 -2.53125 C 2.773438 -2.050781 3.117188 -1.691406 3.546875 -1.453125 C 3.972656 -1.222656 4.441406 -1.109375 4.953125 -1.109375 Z M 4.953125 -1.109375 "/></g></g></g><g fill="#000000" fill-opacity="1"><g transform="translate(19.894817, 38.809592)"><g><path d="M 11.53125 -8.75 C 12.195312 -8.75 12.789062 -8.609375 13.3125 -8.328125 C 13.84375 -8.054688 14.257812 -7.640625 14.5625 -7.078125 C 14.863281 -6.523438 15.015625 -5.851562 15.015625 -5.0625 L 15.015625 0 L 13.609375 0 L 13.609375 -4.859375 C 13.609375 -5.710938 13.394531 -6.363281 12.96875 -6.8125 C 12.539062 -7.269531 11.96875 -7.5 11.25 -7.5 C 10.507812 -7.5 9.921875 -7.257812 9.484375 -6.78125 C 9.046875 -6.3125 8.828125 -5.628906 8.828125 -4.734375 L 8.828125 0 L 7.40625 0 L 7.40625 -4.859375 C 7.40625 -5.710938 7.191406 -6.363281 6.765625 -6.8125 C 6.347656 -7.269531 5.78125 -7.5 5.0625 -7.5 C 4.320312 -7.5 3.734375 -7.257812 3.296875 -6.78125 C 2.859375 -6.3125 2.640625 -5.628906 2.640625 -4.734375 L 2.640625 0 L 1.203125 0 L 1.203125 -8.59375 L 2.640625 -8.59375 L 2.640625 -7.34375 C 2.921875 -7.800781 3.296875 -8.148438 3.765625 -8.390625 C 4.242188 -8.628906 4.769531 -8.75 5.34375 -8.75 C 6.0625 -8.75 6.695312 -8.582031 7.25 -8.25 C 7.8125 -7.925781 8.226562 -7.453125 8.5 -6.828125 C 8.738281 -7.429688 9.132812 -7.898438 9.6875 -8.234375 C 10.238281 -8.578125 10.851562 -8.75 11.53125 -8.75 Z M 11.53125 -8.75 "/></g></g></g><g fill="#000000" fill-opacity="1"><g transform="translate(36.033908, 38.809592)"><g><path d="M 4.953125 0.140625 C 4.148438 0.140625 3.421875 -0.0390625 2.765625 -0.40625 C 2.109375 -0.769531 1.59375 -1.289062 1.21875 -1.96875 C 0.851562 -2.644531 0.671875 -3.425781 0.671875 -4.3125 C 0.671875 -5.1875 0.859375 -5.957031 1.234375 -6.625 C 1.617188 -7.300781 2.140625 -7.820312 2.796875 -8.1875 C 3.460938 -8.550781 4.203125 -8.734375 5.015625 -8.734375 C 5.828125 -8.734375 6.5625 -8.550781 7.21875 -8.1875 C 7.882812 -7.820312 8.40625 -7.304688 8.78125 -6.640625 C 9.164062 -5.972656 9.359375 -5.195312 9.359375 -4.3125 C 9.359375 -3.425781 9.160156 -2.644531 8.765625 -1.96875 C 8.378906 -1.289062 7.847656 -0.769531 7.171875 -0.40625 C 6.503906 -0.0390625 5.765625 0.140625 4.953125 0.140625 Z M 4.953125 -1.109375 C 5.460938 -1.109375 5.941406 -1.226562 6.390625 -1.46875 C 6.835938 -1.707031 7.203125 -2.066406 7.484375 -2.546875 C 7.765625 -3.035156 7.90625 -3.625 7.90625 -4.3125 C 7.90625 -5 7.765625 -5.582031 7.484375 -6.0625 C 7.210938 -6.539062 6.859375 -6.894531 6.421875 -7.125 C 5.984375 -7.363281 5.507812 -7.484375 5 -7.484375 C 4.476562 -7.484375 4 -7.363281 3.5625 -7.125 C 3.132812 -6.894531 2.785156 -6.539062 2.515625 -6.0625 C 2.253906 -5.582031 2.125 -5 2.125 -4.3125 C 2.125 -3.613281 2.253906 -3.019531 2.515625 -2.53125 C 2.773438 -2.050781 3.117188 -1.691406 3.546875 -1.453125 C 3.972656 -1.222656 4.441406 -1.109375 4.953125 -1.109375 Z M 4.953125 -1.109375 "/></g></g></g><g fill="#000000" fill-opacity="1"><g transform="translate(46.062081, 38.809592)"><g><path d="M 2.640625 -7.1875 C 2.890625 -7.6875 3.242188 -8.070312 3.703125 -8.34375 C 4.171875 -8.613281 4.738281 -8.75 5.40625 -8.75 L 5.40625 -7.265625 L 5.03125 -7.265625 C 3.4375 -7.265625 2.640625 -6.398438 2.640625 -4.671875 L 2.640625 0 L 1.203125 0 L 1.203125 -8.59375 L 2.640625 -8.59375 Z M 2.640625 -7.1875 "/></g></g></g><g fill="#000000" fill-opacity="1"><g transform="translate(51.906628, 38.809592)"><g><path d="M 2.640625 -7.1875 C 2.890625 -7.6875 3.242188 -8.070312 3.703125 -8.34375 C 4.171875 -8.613281 4.738281 -8.75 5.40625 -8.75 L 5.40625 -7.265625 L 5.03125 -7.265625 C 3.4375 -7.265625 2.640625 -6.398438 2.640625 -4.671875 L 2.640625 0 L 1.203125 0 L 1.203125 -8.59375 L 2.640625 -8.59375 Z M 2.640625 -7.1875 "/></g></g></g><g fill="#000000" fill-opacity="1"><g transform="translate(57.751174, 38.809592)"><g><path d="M 4.953125 0.140625 C 4.148438 0.140625 3.421875 -0.0390625 2.765625 -0.40625 C 2.109375 -0.769531 1.59375 -1.289062 1.21875 -1.96875 C 0.851562 -2.644531 0.671875 -3.425781 0.671875 -4.3125 C 0.671875 -5.1875 0.859375 -5.957031 1.234375 -6.625 C 1.617188 -7.300781 2.140625 -7.820312 2.796875 -8.1875 C 3.460938 -8.550781 4.203125 -8.734375 5.015625 -8.734375 C 5.828125 -8.734375 6.5625 -8.550781 7.21875 -8.1875 C 7.882812 -7.820312 8.40625 -7.304688 8.78125 -6.640625 C 9.164062 -5.972656 9.359375 -5.195312 9.359375 -4.3125 C 9.359375 -3.425781 9.160156 -2.644531 8.765625 -1.96875 C 8.378906 -1.289062 7.847656 -0.769531 7.171875 -0.40625 C 6.503906 -0.0390625 5.765625 0.140625 4.953125 0.140625 Z M 4.953125 -1.109375 C 5.460938 -1.109375 5.941406 -1.226562 6.390625 -1.46875 C 6.835938 -1.707031 7.203125 -2.066406 7.484375 -2.546875 C 7.765625 -3.035156 7.90625 -3.625 7.90625 -4.3125 C 7.90625 -5 7.765625 -5.582031 7.484375 -6.0625 C 7.210938 -6.539062 6.859375 -6.894531 6.421875 -7.125 C 5.984375 -7.363281 5.507812 -7.484375 5 -7.484375 C 4.476562 -7.484375 4 -7.363281 3.5625 -7.125 C 3.132812 -6.894531 2.785156 -6.539062 2.515625 -6.0625 C 2.253906 -5.582031 2.125 -5 2.125 -4.3125 C 2.125 -3.613281 2.253906 -3.019531 2.515625 -2.53125 C 2.773438 -2.050781 3.117188 -1.691406 3.546875 -1.453125 C 3.972656 -1.222656 4.441406 -1.109375 4.953125 -1.109375 Z M 4.953125 -1.109375 "/></g></g></g><g fill="#000000" fill-opacity="1"><g transform="translate(67.779348, 38.809592)"><g><path d="M 12.640625 -8.59375 L 9.96875 0 L 8.5 0 L 6.421875 -6.8125 L 4.359375 0 L 2.890625 0 L 0.1875 -8.59375 L 1.640625 -8.59375 L 3.625 -1.375 L 5.75 -8.59375 L 7.203125 -8.59375 L 9.296875 -1.359375 L 11.234375 -8.59375 Z M 12.640625 -8.59375 "/></g></g></g><g fill="#000000" fill-opacity="1"><g transform="translate(80.627947, 38.809592)"><g><path d="M 1.421875 -10.921875 L 3.015625 -10.921875 L 1.5 -7.359375 L 0.5 -7.359375 Z M 1.421875 -10.921875 "/></g></g></g><g fill="#000000" fill-opacity="1"><g transform="translate(84.059458, 38.809592)"><g><path d="M 4.25 0.140625 C 3.59375 0.140625 3 0.03125 2.46875 -0.1875 C 1.945312 -0.414062 1.535156 -0.726562 1.234375 -1.125 C 0.929688 -1.53125 0.765625 -1.992188 0.734375 -2.515625 L 2.203125 -2.515625 C 2.242188 -2.085938 2.445312 -1.738281 2.8125 -1.46875 C 3.175781 -1.195312 3.648438 -1.0625 4.234375 -1.0625 C 4.773438 -1.0625 5.203125 -1.179688 5.515625 -1.421875 C 5.828125 -1.660156 5.984375 -1.960938 5.984375 -2.328125 C 5.984375 -2.710938 5.816406 -2.992188 5.484375 -3.171875 C 5.148438 -3.359375 4.632812 -3.539062 3.9375 -3.71875 C 3.300781 -3.882812 2.78125 -4.050781 2.375 -4.21875 C 1.96875 -4.394531 1.617188 -4.648438 1.328125 -4.984375 C 1.046875 -5.328125 0.90625 -5.773438 0.90625 -6.328125 C 0.90625 -6.765625 1.035156 -7.164062 1.296875 -7.53125 C 1.554688 -7.90625 1.925781 -8.195312 2.40625 -8.40625 C 2.894531 -8.625 3.445312 -8.734375 4.0625 -8.734375 C 5.007812 -8.734375 5.773438 -8.488281 6.359375 -8 C 6.941406 -7.519531 7.253906 -6.863281 7.296875 -6.03125 L 5.875 -6.03125 C 5.84375 -6.476562 5.660156 -6.835938 5.328125 -7.109375 C 5.003906 -7.378906 4.566406 -7.515625 4.015625 -7.515625 C 3.503906 -7.515625 3.09375 -7.40625 2.78125 -7.1875 C 2.476562 -6.96875 2.328125 -6.679688 2.328125 -6.328125 C 2.328125 -6.046875 2.421875 -5.8125 2.609375 -5.625 C 2.796875 -5.445312 3.023438 -5.300781 3.296875 -5.1875 C 3.578125 -5.082031 3.960938 -4.960938 4.453125 -4.828125 C 5.066406 -4.660156 5.566406 -4.492188 5.953125 -4.328125 C 6.335938 -4.171875 6.664062 -3.929688 6.9375 -3.609375 C 7.21875 -3.285156 7.363281 -2.859375 7.375 -2.328125 C 7.375 -1.859375 7.242188 -1.4375 6.984375 -1.0625 C 6.722656 -0.6875 6.351562 -0.390625 5.875 -0.171875 C 5.40625 0.0351562 4.863281 0.140625 4.25 0.140625 Z M 4.25 0.140625 "/></g></g></g><g fill="#000000" fill-opacity="1"><g transform="translate(1.389708, 60.748318)"><g><path d="M 4.671875 0.109375 C 3.953125 0.109375 3.304688 -0.015625 2.734375 -0.265625 C 2.160156 -0.523438 1.710938 -0.878906 1.390625 -1.328125 C 1.066406 -1.785156 0.898438 -2.316406 0.890625 -2.921875 L 2.40625 -2.921875 C 2.457031 -2.398438 2.671875 -1.960938 3.046875 -1.609375 C 3.421875 -1.265625 3.960938 -1.09375 4.671875 -1.09375 C 5.347656 -1.09375 5.878906 -1.257812 6.265625 -1.59375 C 6.660156 -1.9375 6.859375 -2.378906 6.859375 -2.921875 C 6.859375 -3.335938 6.742188 -3.675781 6.515625 -3.9375 C 6.285156 -4.195312 6 -4.394531 5.65625 -4.53125 C 5.3125 -4.664062 4.847656 -4.8125 4.265625 -4.96875 C 3.546875 -5.15625 2.96875 -5.34375 2.53125 -5.53125 C 2.09375 -5.71875 1.71875 -6.007812 1.40625 -6.40625 C 1.101562 -6.8125 0.953125 -7.359375 0.953125 -8.046875 C 0.953125 -8.640625 1.101562 -9.164062 1.40625 -9.625 C 1.707031 -10.082031 2.132812 -10.4375 2.6875 -10.6875 C 3.238281 -10.9375 3.867188 -11.0625 4.578125 -11.0625 C 5.597656 -11.0625 6.4375 -10.804688 7.09375 -10.296875 C 7.75 -9.785156 8.117188 -9.109375 8.203125 -8.265625 L 6.625 -8.265625 C 6.570312 -8.679688 6.351562 -9.046875 5.96875 -9.359375 C 5.582031 -9.679688 5.070312 -9.84375 4.4375 -9.84375 C 3.84375 -9.84375 3.351562 -9.6875 2.96875 -9.375 C 2.59375 -9.070312 2.40625 -8.644531 2.40625 -8.09375 C 2.40625 -7.6875 2.519531 -7.359375 2.75 -7.109375 C 2.976562 -6.859375 3.253906 -6.664062 3.578125 -6.53125 C 3.910156 -6.40625 4.375 -6.257812 4.96875 -6.09375 C 5.6875 -5.894531 6.265625 -5.695312 6.703125 -5.5 C 7.140625 -5.3125 7.515625 -5.015625 7.828125 -4.609375 C 8.148438 -4.210938 8.3125 -3.671875 8.3125 -2.984375 C 8.3125 -2.441406 8.164062 -1.9375 7.875 -1.46875 C 7.59375 -1 7.175781 -0.617188 6.625 -0.328125 C 6.070312 -0.0351562 5.421875 0.109375 4.671875 0.109375 Z M 4.671875 0.109375 "/></g></g></g><g fill="#000000" fill-opacity="1"><g transform="translate(10.587421, 60.748318)"><g><path d="M 4.953125 0.140625 C 4.148438 0.140625 3.421875 -0.0390625 2.765625 -0.40625 C 2.109375 -0.769531 1.59375 -1.289062 1.21875 -1.96875 C 0.851562 -2.644531 0.671875 -3.425781 0.671875 -4.3125 C 0.671875 -5.1875 0.859375 -5.957031 1.234375 -6.625 C 1.617188 -7.300781 2.140625 -7.820312 2.796875 -8.1875 C 3.460938 -8.550781 4.203125 -8.734375 5.015625 -8.734375 C 5.828125 -8.734375 6.5625 -8.550781 7.21875 -8.1875 C 7.882812 -7.820312 8.40625 -7.304688 8.78125 -6.640625 C 9.164062 -5.972656 9.359375 -5.195312 9.359375 -4.3125 C 9.359375 -3.425781 9.160156 -2.644531 8.765625 -1.96875 C 8.378906 -1.289062 7.847656 -0.769531 7.171875 -0.40625 C 6.503906 -0.0390625 5.765625 0.140625 4.953125 0.140625 Z M 4.953125 -1.109375 C 5.460938 -1.109375 5.941406 -1.226562 6.390625 -1.46875 C 6.835938 -1.707031 7.203125 -2.066406 7.484375 -2.546875 C 7.765625 -3.035156 7.90625 -3.625 7.90625 -4.3125 C 7.90625 -5 7.765625 -5.582031 7.484375 -6.0625 C 7.210938 -6.539062 6.859375 -6.894531 6.421875 -7.125 C 5.984375 -7.363281 5.507812 -7.484375 5 -7.484375 C 4.476562 -7.484375 4 -7.363281 3.5625 -7.125 C 3.132812 -6.894531 2.785156 -6.539062 2.515625 -6.0625 C 2.253906 -5.582031 2.125 -5 2.125 -4.3125 C 2.125 -3.613281 2.253906 -3.019531 2.515625 -2.53125 C 2.773438 -2.050781 3.117188 -1.691406 3.546875 -1.453125 C 3.972656 -1.222656 4.441406 -1.109375 4.953125 -1.109375 Z M 4.953125 -1.109375 "/></g></g></g><g fill="#000000" fill-opacity="1"><g transform="translate(20.615595, 60.748318)"><g><path d="M 2.640625 -11.59375 L 2.640625 0 L 1.203125 0 L 1.203125 -11.59375 Z M 2.640625 -11.59375 "/></g></g></g><g fill="#000000" fill-opacity="1"><g transform="translate(24.470176, 60.748318)"><g><path d="M 8.828125 -8.59375 L 8.828125 0 L 7.390625 0 L 7.390625 -1.265625 C 7.117188 -0.828125 6.738281 -0.484375 6.25 -0.234375 C 5.769531 0.00390625 5.238281 0.125 4.65625 0.125 C 3.988281 0.125 3.382812 -0.0078125 2.84375 -0.28125 C 2.3125 -0.5625 1.890625 -0.976562 1.578125 -1.53125 C 1.273438 -2.082031 1.125 -2.757812 1.125 -3.5625 L 1.125 -8.59375 L 2.53125 -8.59375 L 2.53125 -3.75 C 2.53125 -2.894531 2.742188 -2.238281 3.171875 -1.78125 C 3.609375 -1.332031 4.195312 -1.109375 4.9375 -1.109375 C 5.695312 -1.109375 6.296875 -1.34375 6.734375 -1.8125 C 7.171875 -2.28125 7.390625 -2.96875 7.390625 -3.875 L 7.390625 -8.59375 Z M 8.828125 -8.59375 "/></g></g></g><g fill="#000000" fill-opacity="1"><g transform="translate(34.498349, 60.748318)"><g><path d="M 2.953125 -7.40625 L 2.953125 -2.34375 C 2.953125 -1.925781 3.039062 -1.628906 3.21875 -1.453125 C 3.394531 -1.285156 3.703125 -1.203125 4.140625 -1.203125 L 5.1875 -1.203125 L 5.1875 0 L 3.90625 0 C 3.113281 0 2.515625 -0.179688 2.109375 -0.546875 C 1.710938 -0.910156 1.515625 -1.507812 1.515625 -2.34375 L 1.515625 -7.40625 L 0.40625 -7.40625 L 0.40625 -8.59375 L 1.515625 -8.59375 L 1.515625 -10.75 L 2.953125 -10.75 L 2.953125 -8.59375 L 5.1875 -8.59375 L 5.1875 -7.40625 Z M 2.953125 -7.40625 "/></g></g></g><g fill="#000000" fill-opacity="1"><g transform="translate(40.201876, 60.748318)"><g><path d="M 1.9375 -9.984375 C 1.664062 -9.984375 1.4375 -10.078125 1.25 -10.265625 C 1.0625 -10.453125 0.96875 -10.679688 0.96875 -10.953125 C 0.96875 -11.222656 1.0625 -11.453125 1.25 -11.640625 C 1.4375 -11.828125 1.664062 -11.921875 1.9375 -11.921875 C 2.195312 -11.921875 2.421875 -11.828125 2.609375 -11.640625 C 2.796875 -11.453125 2.890625 -11.222656 2.890625 -10.953125 C 2.890625 -10.679688 2.796875 -10.453125 2.609375 -10.265625 C 2.421875 -10.078125 2.195312 -9.984375 1.9375 -9.984375 Z M 2.640625 -8.59375 L 2.640625 0 L 1.203125 0 L 1.203125 -8.59375 Z M 2.640625 -8.59375 "/></g></g></g><g fill="#000000" fill-opacity="1"><g transform="translate(44.056457, 60.748318)"><g><path d="M 4.953125 0.140625 C 4.148438 0.140625 3.421875 -0.0390625 2.765625 -0.40625 C 2.109375 -0.769531 1.59375 -1.289062 1.21875 -1.96875 C 0.851562 -2.644531 0.671875 -3.425781 0.671875 -4.3125 C 0.671875 -5.1875 0.859375 -5.957031 1.234375 -6.625 C 1.617188 -7.300781 2.140625 -7.820312 2.796875 -8.1875 C 3.460938 -8.550781 4.203125 -8.734375 5.015625 -8.734375 C 5.828125 -8.734375 6.5625 -8.550781 7.21875 -8.1875 C 7.882812 -7.820312 8.40625 -7.304688 8.78125 -6.640625 C 9.164062 -5.972656 9.359375 -5.195312 9.359375 -4.3125 C 9.359375 -3.425781 9.160156 -2.644531 8.765625 -1.96875 C 8.378906 -1.289062 7.847656 -0.769531 7.171875 -0.40625 C 6.503906 -0.0390625 5.765625 0.140625 4.953125 0.140625 Z M 4.953125 -1.109375 C 5.460938 -1.109375 5.941406 -1.226562 6.390625 -1.46875 C 6.835938 -1.707031 7.203125 -2.066406 7.484375 -2.546875 C 7.765625 -3.035156 7.90625 -3.625 7.90625 -4.3125 C 7.90625 -5 7.765625 -5.582031 7.484375 -6.0625 C 7.210938 -6.539062 6.859375 -6.894531 6.421875 -7.125 C 5.984375 -7.363281 5.507812 -7.484375 5 -7.484375 C 4.476562 -7.484375 4 -7.363281 3.5625 -7.125 C 3.132812 -6.894531 2.785156 -6.539062 2.515625 -6.0625 C 2.253906 -5.582031 2.125 -5 2.125 -4.3125 C 2.125 -3.613281 2.253906 -3.019531 2.515625 -2.53125 C 2.773438 -2.050781 3.117188 -1.691406 3.546875 -1.453125 C 3.972656 -1.222656 4.441406 -1.109375 4.953125 -1.109375 Z M 4.953125 -1.109375 "/></g></g></g><g fill="#000000" fill-opacity="1"><g transform="translate(54.084631, 60.748318)"><g><path d="M 5.390625 -8.75 C 6.429688 -8.75 7.273438 -8.429688 7.921875 -7.796875 C 8.578125 -7.160156 8.90625 -6.25 8.90625 -5.0625 L 8.90625 0 L 7.484375 0 L 7.484375 -4.859375 C 7.484375 -5.710938 7.269531 -6.363281 6.84375 -6.8125 C 6.414062 -7.269531 5.832031 -7.5 5.09375 -7.5 C 4.34375 -7.5 3.742188 -7.265625 3.296875 -6.796875 C 2.859375 -6.328125 2.640625 -5.644531 2.640625 -4.75 L 2.640625 0 L 1.203125 0 L 1.203125 -8.59375 L 2.640625 -8.59375 L 2.640625 -7.359375 C 2.921875 -7.804688 3.300781 -8.148438 3.78125 -8.390625 C 4.269531 -8.628906 4.804688 -8.75 5.390625 -8.75 Z M 5.390625 -8.75 "/></g></g></g><g fill="#000000" fill-opacity="1"><g transform="translate(64.112804, 60.748318)"><g><path d="M 4.25 0.140625 C 3.59375 0.140625 3 0.03125 2.46875 -0.1875 C 1.945312 -0.414062 1.535156 -0.726562 1.234375 -1.125 C 0.929688 -1.53125 0.765625 -1.992188 0.734375 -2.515625 L 2.203125 -2.515625 C 2.242188 -2.085938 2.445312 -1.738281 2.8125 -1.46875 C 3.175781 -1.195312 3.648438 -1.0625 4.234375 -1.0625 C 4.773438 -1.0625 5.203125 -1.179688 5.515625 -1.421875 C 5.828125 -1.660156 5.984375 -1.960938 5.984375 -2.328125 C 5.984375 -2.710938 5.816406 -2.992188 5.484375 -3.171875 C 5.148438 -3.359375 4.632812 -3.539062 3.9375 -3.71875 C 3.300781 -3.882812 2.78125 -4.050781 2.375 -4.21875 C 1.96875 -4.394531 1.617188 -4.648438 1.328125 -4.984375 C 1.046875 -5.328125 0.90625 -5.773438 0.90625 -6.328125 C 0.90625 -6.765625 1.035156 -7.164062 1.296875 -7.53125 C 1.554688 -7.90625 1.925781 -8.195312 2.40625 -8.40625 C 2.894531 -8.625 3.445312 -8.734375 4.0625 -8.734375 C 5.007812 -8.734375 5.773438 -8.488281 6.359375 -8 C 6.941406 -7.519531 7.253906 -6.863281 7.296875 -6.03125 L 5.875 -6.03125 C 5.84375 -6.476562 5.660156 -6.835938 5.328125 -7.109375 C 5.003906 -7.378906 4.566406 -7.515625 4.015625 -7.515625 C 3.503906 -7.515625 3.09375 -7.40625 2.78125 -7.1875 C 2.476562 -6.96875 2.328125 -6.679688 2.328125 -6.328125 C 2.328125 -6.046875 2.421875 -5.8125 2.609375 -5.625 C 2.796875 -5.445312 3.023438 -5.300781 3.296875 -5.1875 C 3.578125 -5.082031 3.960938 -4.960938 4.453125 -4.828125 C 5.066406 -4.660156 5.566406 -4.492188 5.953125 -4.328125 C 6.335938 -4.171875 6.664062 -3.929688 6.9375 -3.609375 C 7.21875 -3.285156 7.363281 -2.859375 7.375 -2.328125 C 7.375 -1.859375 7.242188 -1.4375 6.984375 -1.0625 C 6.722656 -0.6875 6.351562 -0.390625 5.875 -0.171875 C 5.40625 0.0351562 4.863281 0.140625 4.25 0.140625 Z M 4.25 0.140625 "/></g></g></g><g fill="#000000" fill-opacity="1"><g transform="translate(72.292032, 60.748318)"><g><path d="M 2.6875 -1.96875 L 0.921875 2.234375 L -0.03125 2.234375 L 1.109375 -1.96875 Z M 2.6875 -1.96875 "/></g></g></g><g fill="#000000" fill-opacity="1"><g transform="translate(75.394497, 60.748318)"><g/></g></g><g fill="#000000" fill-opacity="1"><g transform="translate(79.578124, 60.748318)"><g><path d="M 7.9375 -10.921875 L 7.9375 -9.765625 L 4.953125 -9.765625 L 4.953125 0 L 3.53125 0 L 3.53125 -9.765625 L 0.53125 -9.765625 L 0.53125 -10.921875 Z M 7.9375 -10.921875 "/></g></g></g><g fill="#000000" fill-opacity="1"><g transform="translate(88.055059, 60.748318)"><g><path d="M 4.953125 0.140625 C 4.148438 0.140625 3.421875 -0.0390625 2.765625 -0.40625 C 2.109375 -0.769531 1.59375 -1.289062 1.21875 -1.96875 C 0.851562 -2.644531 0.671875 -3.425781 0.671875 -4.3125 C 0.671875 -5.1875 0.859375 -5.957031 1.234375 -6.625 C 1.617188 -7.300781 2.140625 -7.820312 2.796875 -8.1875 C 3.460938 -8.550781 4.203125 -8.734375 5.015625 -8.734375 C 5.828125 -8.734375 6.5625 -8.550781 7.21875 -8.1875 C 7.882812 -7.820312 8.40625 -7.304688 8.78125 -6.640625 C 9.164062 -5.972656 9.359375 -5.195312 9.359375 -4.3125 C 9.359375 -3.425781 9.160156 -2.644531 8.765625 -1.96875 C 8.378906 -1.289062 7.847656 -0.769531 7.171875 -0.40625 C 6.503906 -0.0390625 5.765625 0.140625 4.953125 0.140625 Z M 4.953125 -1.109375 C 5.460938 -1.109375 5.941406 -1.226562 6.390625 -1.46875 C 6.835938 -1.707031 7.203125 -2.066406 7.484375 -2.546875 C 7.765625 -3.035156 7.90625 -3.625 7.90625 -4.3125 C 7.90625 -5 7.765625 -5.582031 7.484375 -6.0625 C 7.210938 -6.539062 6.859375 -6.894531 6.421875 -7.125 C 5.984375 -7.363281 5.507812 -7.484375 5 -7.484375 C 4.476562 -7.484375 4 -7.363281 3.5625 -7.125 C 3.132812 -6.894531 2.785156 -6.539062 2.515625 -6.0625 C 2.253906 -5.582031 2.125 -5 2.125 -4.3125 C 2.125 -3.613281 2.253906 -3.019531 2.515625 -2.53125 C 2.773438 -2.050781 3.117188 -1.691406 3.546875 -1.453125 C 3.972656 -1.222656 4.441406 -1.109375 4.953125 -1.109375 Z M 4.953125 -1.109375 "/></g></g></g><g fill="#000000" fill-opacity="1"><g transform="translate(98.083233, 60.748318)"><g><path d="M 0.671875 -4.328125 C 0.671875 -5.203125 0.847656 -5.96875 1.203125 -6.625 C 1.554688 -7.289062 2.046875 -7.804688 2.671875 -8.171875 C 3.296875 -8.546875 3.992188 -8.734375 4.765625 -8.734375 C 5.429688 -8.734375 6.050781 -8.578125 6.625 -8.265625 C 7.195312 -7.953125 7.640625 -7.546875 7.953125 -7.046875 L 7.953125 -11.59375 L 9.390625 -11.59375 L 9.390625 0 L 7.953125 0 L 7.953125 -1.609375 C 7.660156 -1.097656 7.238281 -0.675781 6.6875 -0.34375 C 6.132812 -0.0195312 5.488281 0.140625 4.75 0.140625 C 3.988281 0.140625 3.296875 -0.046875 2.671875 -0.421875 C 2.046875 -0.796875 1.554688 -1.320312 1.203125 -2 C 0.847656 -2.6875 0.671875 -3.460938 0.671875 -4.328125 Z M 7.953125 -4.3125 C 7.953125 -4.957031 7.816406 -5.519531 7.546875 -6 C 7.285156 -6.476562 6.929688 -6.84375 6.484375 -7.09375 C 6.046875 -7.351562 5.5625 -7.484375 5.03125 -7.484375 C 4.5 -7.484375 4.015625 -7.359375 3.578125 -7.109375 C 3.140625 -6.859375 2.785156 -6.492188 2.515625 -6.015625 C 2.253906 -5.535156 2.125 -4.972656 2.125 -4.328125 C 2.125 -3.671875 2.253906 -3.097656 2.515625 -2.609375 C 2.785156 -2.117188 3.140625 -1.742188 3.578125 -1.484375 C 4.015625 -1.234375 4.5 -1.109375 5.03125 -1.109375 C 5.5625 -1.109375 6.046875 -1.234375 6.484375 -1.484375 C 6.929688 -1.742188 7.285156 -2.117188 7.546875 -2.609375 C 7.816406 -3.097656 7.953125 -3.664062 7.953125 -4.3125 Z M 7.953125 -4.3125 "/></g></g></g><g fill="#000000" fill-opacity="1"><g transform="translate(108.675496, 60.748318)"><g><path d="M 0.671875 -4.328125 C 0.671875 -5.203125 0.847656 -5.96875 1.203125 -6.625 C 1.554688 -7.289062 2.046875 -7.804688 2.671875 -8.171875 C 3.296875 -8.546875 3.988281 -8.734375 4.75 -8.734375 C 5.5 -8.734375 6.148438 -8.566406 6.703125 -8.234375 C 7.253906 -7.910156 7.671875 -7.503906 7.953125 -7.015625 L 7.953125 -8.59375 L 9.390625 -8.59375 L 9.390625 0 L 7.953125 0 L 7.953125 -1.59375 C 7.660156 -1.09375 7.234375 -0.675781 6.671875 -0.34375 C 6.117188 -0.0195312 5.472656 0.140625 4.734375 0.140625 C 3.972656 0.140625 3.28125 -0.046875 2.65625 -0.421875 C 2.039062 -0.796875 1.554688 -1.320312 1.203125 -2 C 0.847656 -2.6875 0.671875 -3.460938 0.671875 -4.328125 Z M 7.953125 -4.3125 C 7.953125 -4.957031 7.816406 -5.519531 7.546875 -6 C 7.285156 -6.476562 6.929688 -6.84375 6.484375 -7.09375 C 6.046875 -7.351562 5.5625 -7.484375 5.03125 -7.484375 C 4.5 -7.484375 4.015625 -7.359375 3.578125 -7.109375 C 3.140625 -6.859375 2.785156 -6.492188 2.515625 -6.015625 C 2.253906 -5.535156 2.125 -4.972656 2.125 -4.328125 C 2.125 -3.671875 2.253906 -3.097656 2.515625 -2.609375 C 2.785156 -2.117188 3.140625 -1.742188 3.578125 -1.484375 C 4.015625 -1.234375 4.5 -1.109375 5.03125 -1.109375 C 5.5625 -1.109375 6.046875 -1.234375 6.484375 -1.484375 C 6.929688 -1.742188 7.285156 -2.117188 7.546875 -2.609375 C 7.816406 -3.097656 7.953125 -3.664062 7.953125 -4.3125 Z M 7.953125 -4.3125 "/></g></g></g><g fill="#000000" fill-opacity="1"><g transform="translate(119.267759, 60.748318)"><g><path d="M 8.609375 -8.59375 L 3.4375 4.046875 L 1.953125 4.046875 L 3.65625 -0.09375 L 0.1875 -8.59375 L 1.765625 -8.59375 L 4.46875 -1.625 L 7.125 -8.59375 Z M 8.609375 -8.59375 "/></g></g></g><g clip-path="url(#92e0c76dc4)"><g clip-path="url(#763cb1c7e0)"><g clip-path="url(#5e6367fc98)"><g clip-path="url(#60acf7cb05)"><path fill="#000000" d="M 128.34375 34.550781 C 125.046875 31.71875 121.019531 29.410156 116.609375 29.050781 C 114.425781 28.871094 112.242188 29.285156 110.269531 30.210938 C 108.511719 31.039062 107.171875 32.21875 106.066406 33.796875 C 104.8125 35.585938 103.851562 37.691406 103.480469 39.851562 C 103.191406 41.511719 103.3125 43.449219 104.742188 44.578125 C 104.917969 44.714844 105.097656 44.421875 104.925781 44.285156 C 103.59375 43.234375 103.566406 41.363281 103.832031 39.84375 C 104.15625 37.957031 104.976562 36.148438 105.992188 34.535156 C 106.46875 33.777344 107.015625 33.054688 107.640625 32.410156 C 108.367188 31.664062 109.257812 31.113281 110.179688 30.640625 C 112.238281 29.585938 114.5625 29.207031 116.863281 29.417969 C 121.0625 29.800781 124.953125 32.089844 128.09375 34.785156 C 128.261719 34.933594 128.515625 34.695312 128.34375 34.550781 Z M 128.34375 34.550781 " fill-opacity="1" fill-rule="nonzero"/></g></g></g></g><g clip-path="url(#150bbba039)"><g clip-path="url(#068747cfd4)"><g clip-path="url(#a51c5f7439)"><g clip-path="url(#58f387907e)"><path fill="#000000" d="M 100.566406 39.953125 C 102.851562 40.632812 105.136719 41.648438 107.554688 41.703125 C 107.78125 41.707031 107.773438 41.386719 107.558594 41.355469 C 107.304688 41.320312 107.105469 41.4375 107.019531 41.679688 C 106.992188 41.757812 107.035156 41.828125 107.09375 41.875 C 107.515625 42.207031 107.933594 42.535156 108.355469 42.867188 C 108.34375 42.773438 108.335938 42.683594 108.328125 42.59375 C 106.40625 44.628906 104.195312 46.402344 102.484375 48.628906 C 102.585938 48.632812 102.6875 48.636719 102.785156 48.636719 C 101.476562 46.226562 100.390625 43.597656 100.167969 40.839844 C 100.054688 40.855469 99.941406 40.867188 99.828125 40.878906 C 100.464844 42.894531 101.289062 44.894531 102.5 46.644531 C 102.625 46.828125 102.925781 46.667969 102.804688 46.480469 C 101.550781 44.582031 101 42.375 100.332031 40.230469 C 100.265625 40.011719 99.96875 40.09375 99.996094 40.3125 C 100.28125 42.589844 101.035156 44.824219 102.128906 46.847656 C 102.234375 47.042969 102.539062 46.878906 102.433594 46.679688 C 101.699219 45.300781 101.222656 43.578125 101.058594 42.03125 C 100.953125 42.058594 100.84375 42.082031 100.734375 42.109375 C 101.777344 44.03125 102.664062 46.054688 104.070312 47.757812 C 104.179688 47.890625 104.417969 47.761719 104.363281 47.597656 C 103.679688 45.429688 102.765625 43.34375 101.863281 41.261719 C 101.773438 41.054688 101.472656 41.222656 101.558594 41.425781 C 102.289062 43.1875 103.199219 44.914062 104.488281 46.335938 C 104.601562 46.457031 104.847656 46.34375 104.785156 46.175781 C 104.253906 44.765625 103.710938 43.359375 102.808594 42.132812 C 102.683594 41.957031 102.46875 42.167969 102.53125 42.332031 C 103.046875 43.648438 104.007812 44.621094 105.027344 45.570312 C 105.167969 45.703125 105.398438 45.546875 105.304688 45.367188 C 104.785156 44.367188 104.59375 43.226562 104.0625 42.222656 C 103.996094 42.304688 103.929688 42.386719 103.863281 42.46875 C 104.511719 42.664062 105.179688 42.839844 105.699219 43.296875 C 105.757812 43.203125 105.816406 43.109375 105.875 43.011719 C 104.703125 42.699219 103.457031 42.890625 102.28125 42.566406 C 102.085938 42.515625 101.976562 42.769531 102.140625 42.878906 C 103.621094 43.898438 105.429688 44.84375 107.285156 44.710938 C 107.445312 44.699219 107.539062 44.484375 107.378906 44.390625 C 106.222656 43.730469 104.910156 43.34375 103.578125 43.265625 C 103.402344 43.257812 103.339844 43.5 103.484375 43.585938 C 104.40625 44.148438 105.128906 44.941406 106.003906 45.566406 C 106.167969 45.683594 106.351562 45.441406 106.222656 45.300781 C 105.042969 44.050781 103.566406 43.246094 102.035156 42.503906 C 102.003906 42.609375 101.972656 42.714844 101.941406 42.820312 C 103.300781 42.855469 104.597656 42.371094 105.917969 42.125 C 106.089844 42.09375 106.085938 41.839844 105.925781 41.792969 C 104.84375 41.472656 103.78125 41.199219 102.652344 41.140625 C 102.480469 41.132812 102.410156 41.375 102.558594 41.460938 C 103.789062 42.179688 105.066406 42.8125 106.433594 43.230469 C 106.464844 43.121094 106.496094 43.007812 106.53125 42.898438 C 105.957031 42.730469 105.386719 42.5625 104.816406 42.390625 C 104.601562 42.328125 104.503906 42.660156 104.71875 42.722656 C 105.289062 42.890625 105.859375 43.0625 106.433594 43.230469 C 106.648438 43.292969 106.742188 42.964844 106.53125 42.898438 C 105.191406 42.492188 103.945312 41.871094 102.742188 41.167969 C 102.710938 41.273438 102.679688 41.378906 102.648438 41.488281 C 103.746094 41.546875 104.777344 41.816406 105.828125 42.125 C 105.828125 42.011719 105.832031 41.902344 105.835938 41.789062 C 104.546875 42.027344 103.273438 42.507812 101.949219 42.476562 C 101.785156 42.472656 101.691406 42.71875 101.851562 42.796875 C 103.355469 43.527344 104.8125 44.308594 105.96875 45.539062 C 106.039062 45.449219 106.113281 45.363281 106.1875 45.273438 C 105.3125 44.648438 104.589844 43.855469 103.667969 43.292969 C 103.632812 43.398438 103.601562 43.507812 103.570312 43.613281 C 104.839844 43.683594 106.09375 44.054688 107.195312 44.683594 C 107.226562 44.578125 107.257812 44.472656 107.289062 44.363281 C 105.492188 44.492188 103.757812 43.574219 102.320312 42.585938 C 102.273438 42.691406 102.226562 42.796875 102.183594 42.898438 C 103.359375 43.222656 104.605469 43.03125 105.777344 43.34375 C 105.933594 43.386719 106.089844 43.179688 105.953125 43.0625 C 105.378906 42.558594 104.679688 42.351562 103.960938 42.136719 C 103.8125 42.09375 103.6875 42.253906 103.757812 42.386719 C 104.289062 43.390625 104.480469 44.53125 105 45.535156 C 105.09375 45.464844 105.1875 45.398438 105.28125 45.332031 C 104.28125 44.402344 103.34375 43.457031 102.835938 42.167969 C 102.742188 42.234375 102.652344 42.300781 102.558594 42.367188 C 103.417969 43.546875 103.941406 44.90625 104.449219 46.257812 C 104.546875 46.207031 104.644531 46.152344 104.742188 46.101562 C 103.472656 44.699219 102.582031 42.992188 101.863281 41.261719 C 101.761719 41.316406 101.660156 41.371094 101.558594 41.425781 C 102.449219 43.484375 103.351562 45.542969 104.027344 47.679688 C 104.125 47.625 104.222656 47.574219 104.324219 47.519531 C 102.9375 45.84375 102.070312 43.839844 101.039062 41.945312 C 100.960938 41.804688 100.695312 41.84375 100.714844 42.023438 C 100.882812 43.636719 101.363281 45.40625 102.128906 46.84375 C 102.230469 46.789062 102.332031 46.734375 102.433594 46.679688 C 101.351562 44.683594 100.617188 42.480469 100.332031 40.230469 C 100.21875 40.257812 100.109375 40.285156 99.996094 40.3125 C 100.671875 42.484375 101.230469 44.722656 102.5 46.644531 C 102.601562 46.589844 102.703125 46.535156 102.804688 46.480469 C 101.609375 44.753906 100.792969 42.785156 100.164062 40.796875 C 100.109375 40.621094 99.804688 40.628906 99.824219 40.835938 C 100.046875 43.652344 101.140625 46.335938 102.480469 48.804688 C 102.550781 48.925781 102.707031 48.914062 102.78125 48.8125 C 104.46875 46.609375 106.667969 44.855469 108.566406 42.84375 C 108.648438 42.757812 108.628906 42.644531 108.539062 42.574219 C 108.117188 42.242188 107.699219 41.914062 107.277344 41.582031 C 107.304688 41.648438 107.328125 41.710938 107.351562 41.777344 C 107.375 41.707031 107.441406 41.683594 107.554688 41.703125 C 107.554688 41.585938 107.558594 41.472656 107.558594 41.355469 C 105.179688 41.304688 102.917969 40.292969 100.667969 39.621094 C 100.453125 39.554688 100.355469 39.886719 100.566406 39.953125 Z M 100.566406 39.953125 " fill-opacity="1" fill-rule="nonzero"/></g></g></g></g><g clip-path="url(#6861c264a8)"><g clip-path="url(#583f56c482)"><g clip-path="url(#edf4d112f8)"><g clip-path="url(#ab925c621e)"><path fill="#000000" d="M 101.996094 46.152344 C 102.21875 47.371094 102.582031 48.527344 103.171875 49.625 C 103.242188 49.757812 103.445312 49.734375 103.488281 49.589844 C 104.25 47.132812 106.253906 45.476562 107.769531 43.492188 C 107.882812 43.347656 107.683594 43.175781 107.539062 43.25 C 106.820312 43.613281 106.027344 43.648438 105.246094 43.777344 C 105.316406 43.851562 105.386719 43.921875 105.453125 43.996094 C 105.546875 43.757812 105.816406 43.402344 106.109375 43.4375 C 106.308594 43.460938 106.34375 43.152344 106.160156 43.097656 C 105.996094 43.050781 105.210938 42.839844 105.226562 42.644531 C 105.152344 42.699219 105.078125 42.753906 105.003906 42.808594 C 105.820312 43.015625 106.65625 42.726562 107.457031 42.914062 C 107.472656 42.800781 107.492188 42.6875 107.507812 42.578125 C 105.261719 42.234375 103.078125 41.566406 100.902344 40.925781 C 100.683594 40.863281 100.59375 41.183594 100.804688 41.257812 C 101.371094 41.460938 101.851562 41.855469 102.433594 42.046875 C 102.644531 42.117188 102.742188 41.785156 102.53125 41.714844 C 101.953125 41.523438 101.472656 41.128906 100.902344 40.925781 C 100.867188 41.035156 100.835938 41.144531 100.804688 41.257812 C 103.011719 41.910156 105.222656 42.578125 107.503906 42.921875 C 107.695312 42.953125 107.742188 42.628906 107.554688 42.582031 C 106.746094 42.390625 105.917969 42.683594 105.101562 42.476562 C 104.988281 42.445312 104.886719 42.523438 104.878906 42.636719 C 104.84375 43.109375 105.726562 43.328125 106.0625 43.429688 C 106.078125 43.316406 106.097656 43.203125 106.113281 43.089844 C 105.660156 43.039062 105.269531 43.519531 105.121094 43.898438 C 105.070312 44.027344 105.210938 44.132812 105.328125 44.113281 C 106.140625 43.980469 106.960938 43.929688 107.707031 43.554688 C 107.628906 43.472656 107.550781 43.390625 107.476562 43.308594 C 105.933594 45.324219 103.925781 46.996094 103.15625 49.492188 C 103.261719 49.480469 103.367188 49.46875 103.476562 49.460938 C 102.898438 48.386719 102.550781 47.261719 102.332031 46.070312 C 102.292969 45.851562 101.953125 45.933594 101.996094 46.152344 Z M 101.996094 46.152344 " fill-opacity="1" fill-rule="nonzero"/></g></g></g></g><g clip-path="url(#2656c036f9)"><g clip-path="url(#010c3156ae)"><g clip-path="url(#4bfb09d90b)"><g clip-path="url(#def974a850)"><path fill="#000000" d="M 104.625 42.824219 C 104.945312 40.558594 105.679688 38.332031 106.785156 36.332031 C 107.835938 34.429688 109.378906 32.582031 111.472656 31.800781 C 113.269531 31.132812 115.25 30.921875 117.152344 30.828125 C 119.394531 30.714844 121.664062 30.84375 123.871094 31.265625 C 125.816406 31.640625 127.964844 32.265625 129.417969 33.6875 C 129.578125 33.84375 129.832031 33.605469 129.671875 33.449219 C 128.40625 32.210938 126.644531 31.578125 124.957031 31.152344 C 122.847656 30.625 120.648438 30.445312 118.484375 30.449219 C 116.484375 30.449219 114.449219 30.628906 112.511719 31.121094 C 110.632812 31.597656 109.09375 32.613281 107.871094 34.109375 C 105.871094 36.558594 104.71875 39.714844 104.277344 42.820312 C 104.246094 43.039062 104.59375 43.042969 104.625 42.824219 Z M 104.625 42.824219 " fill-opacity="1" fill-rule="nonzero"/></g></g></g></g></svg>