<svg xmlns="http://www.w3.org/2000/svg" xmlns:xlink="http://www.w3.org/1999/xlink" width="180" zoomAndPan="magnify" viewBox="0 0 135 67.499998" height="90" preserveAspectRatio="xMidYMid meet" version="1.0"><defs><g/><clipPath id="955926e167"><path d="M 80.679688 60.304688 L 131.304688 60.304688 L 131.304688 67.003906 L 80.679688 67.003906 Z M 80.679688 60.304688 " clip-rule="nonzero"/></clipPath><clipPath id="bd9a7e82f0"><path d="M 0.496094 8 L 16 8 L 16 20 L 0.496094 20 Z M 0.496094 8 " clip-rule="nonzero"/></clipPath></defs><g clip-path="url(#955926e167)"><path fill="#abc4ff" d="M 83.039062 61.550781 C 83.011719 61.523438 83.089844 61.519531 83.171875 61.515625 C 83.253906 61.511719 83.335938 61.507812 83.402344 61.523438 C 83.46875 61.539062 83.539062 61.558594 83.605469 61.578125 C 83.675781 61.601562 83.75 61.621094 83.964844 61.671875 C 84.183594 61.722656 84.585938 61.757812 85.015625 61.765625 C 85.445312 61.769531 85.875 61.777344 86.304688 61.78125 C 86.730469 61.789062 87.160156 61.789062 87.585938 61.789062 C 88.015625 61.789062 88.441406 61.789062 89.535156 61.78125 C 90.632812 61.773438 92.269531 61.757812 93.722656 61.742188 C 95.171875 61.726562 96.433594 61.710938 97.511719 61.695312 C 98.585938 61.679688 99.476562 61.664062 100.175781 61.648438 C 100.875 61.636719 101.386719 61.621094 104.808594 61.503906 C 108.234375 61.382812 114.695312 61.160156 116.039062 61.097656 C 117.378906 61.035156 118.644531 60.96875 119.835938 60.910156 C 121.023438 60.847656 122.132812 60.789062 123.164062 60.738281 C 124.195312 60.683594 125.148438 60.632812 126.023438 60.585938 C 126.902344 60.535156 127.699219 60.492188 128.152344 60.46875 C 128.601562 60.445312 129 60.425781 129.34375 60.414062 C 129.6875 60.398438 129.976562 60.390625 130.210938 60.390625 C 130.445312 60.386719 130.625 60.390625 130.753906 60.398438 C 130.878906 60.40625 130.949219 60.417969 131.082031 60.511719 C 131.214844 60.609375 129.3125 62.507812 128.933594 62.644531 C 128.558594 62.78125 127.925781 62.933594 127.039062 63.105469 C 126.152344 63.28125 125.011719 63.46875 123.617188 63.675781 C 122.21875 63.882812 120.574219 64.105469 120.191406 64.148438 C 119.8125 64.195312 119.382812 64.246094 118.902344 64.292969 C 118.421875 64.34375 117.894531 64.394531 117.3125 64.441406 C 116.734375 64.492188 116.105469 64.542969 115.429688 64.59375 C 114.75 64.644531 114.023438 64.695312 112.21875 64.816406 C 110.414062 64.941406 108.839844 65.046875 107.496094 65.136719 C 106.15625 65.226562 105.042969 65.300781 104.15625 65.359375 C 103.273438 65.417969 102.617188 65.464844 102.191406 65.496094 C 101.769531 65.523438 101.574219 65.542969 100.25 65.667969 C 98.929688 65.796875 97.695312 65.914062 96.554688 66.015625 C 95.410156 66.121094 94.359375 66.210938 93.398438 66.292969 C 92.4375 66.375 91.5625 66.445312 90.78125 66.507812 C 90 66.570312 89.308594 66.628906 89.09375 66.648438 C 88.878906 66.667969 88.695312 66.683594 88.535156 66.703125 C 88.375 66.722656 88.242188 66.742188 88.136719 66.757812 C 88.03125 66.777344 87.949219 66.792969 87.898438 66.804688 C 87.84375 66.820312 89.617188 65.03125 89.640625 65.078125 C 89.660156 65.128906 89.742188 65.171875 89.886719 65.207031 C 90.03125 65.242188 90.238281 65.273438 90.507812 65.296875 C 90.777344 65.320312 91.109375 65.335938 91.503906 65.347656 C 91.894531 65.359375 92.351562 65.363281 99.125 65.347656 C 105.898438 65.328125 106.539062 65.332031 107.320312 65.339844 C 108.101562 65.347656 109.023438 65.355469 110.089844 65.359375 C 111.160156 65.367188 112.386719 65.359375 113.765625 65.335938 C 115.148438 65.316406 116.6875 65.28125 117.34375 64.84375 C 117.996094 64.402344 115.65625 66.746094 116.238281 67.328125 C 116.238281 67.328125 114.832031 67.136719 113.347656 67.164062 C 111.863281 67.191406 110.539062 67.203125 109.371094 67.203125 C 108.203125 67.203125 107.183594 67.195312 106.3125 67.183594 C 105.441406 67.171875 104.710938 67.160156 101.011719 67.160156 C 97.3125 67.160156 90.550781 67.164062 90.117188 67.160156 C 89.679688 67.152344 89.308594 67.136719 88.996094 67.117188 C 88.6875 67.097656 88.4375 67.074219 88.25 67.042969 C 88.066406 67.007812 87.941406 66.972656 87.878906 66.925781 C 87.816406 66.882812 87.816406 66.832031 88.753906 65.917969 C 89.691406 65.007812 89.75 64.992188 89.839844 64.976562 C 89.929688 64.957031 90.042969 64.941406 90.183594 64.921875 C 90.328125 64.902344 90.496094 64.886719 90.6875 64.867188 C 90.882812 64.847656 91.105469 64.832031 91.824219 64.773438 C 92.542969 64.71875 93.355469 64.652344 94.257812 64.578125 C 95.160156 64.503906 96.152344 64.417969 97.230469 64.324219 C 98.3125 64.230469 99.484375 64.125 100.742188 64.007812 C 102.003906 63.890625 103.355469 63.757812 103.625 63.738281 C 103.898438 63.71875 104.402344 63.683594 105.132812 63.632812 C 105.863281 63.582031 106.824219 63.519531 108.015625 63.4375 C 109.203125 63.359375 110.625 63.265625 112.269531 63.15625 C 113.917969 63.046875 115.792969 62.921875 116.507812 62.871094 C 117.21875 62.820312 117.878906 62.769531 118.492188 62.71875 C 119.101562 62.667969 119.664062 62.621094 120.179688 62.570312 C 120.691406 62.519531 121.15625 62.472656 121.570312 62.425781 C 121.980469 62.375 122.347656 62.332031 123.914062 62.109375 C 125.484375 61.890625 126.792969 61.6875 127.851562 61.503906 C 128.90625 61.320312 129.707031 61.152344 130.253906 61.003906 C 130.800781 60.855469 131.09375 60.726562 130.238281 61.507812 C 129.382812 62.289062 129.167969 62.199219 129.078125 62.1875 C 128.988281 62.175781 128.84375 62.171875 128.644531 62.171875 C 128.449219 62.171875 128.195312 62.175781 127.886719 62.183594 C 127.582031 62.195312 127.21875 62.207031 126.804688 62.226562 C 126.386719 62.25 125.917969 62.273438 125.09375 62.320312 C 124.269531 62.363281 123.363281 62.414062 122.382812 62.46875 C 121.398438 62.527344 120.339844 62.582031 119.203125 62.640625 C 118.070312 62.699219 116.855469 62.761719 115.5625 62.828125 C 114.269531 62.890625 112.894531 62.960938 106.425781 63.191406 C 99.953125 63.425781 99.566406 63.441406 98.992188 63.457031 C 98.414062 63.472656 97.648438 63.492188 96.695312 63.507812 C 95.746094 63.523438 94.605469 63.542969 93.273438 63.5625 C 91.945312 63.578125 90.429688 63.597656 88.722656 63.617188 C 87.015625 63.640625 86.585938 63.644531 86.160156 63.644531 C 85.730469 63.648438 85.300781 63.644531 84.871094 63.644531 C 84.441406 63.644531 84.011719 63.640625 83.582031 63.632812 C 83.152344 63.628906 82.722656 63.621094 82.242188 63.664062 C 81.757812 63.707031 81.644531 63.722656 81.535156 63.746094 C 81.421875 63.765625 81.3125 63.785156 81.207031 63.804688 C 81.101562 63.828125 80.996094 63.847656 80.910156 63.851562 C 80.828125 63.859375 80.75 63.859375 80.710938 63.863281 C 80.695312 63.894531 83.011719 61.523438 83.039062 61.550781 Z M 83.039062 61.550781 " fill-opacity="1" fill-rule="nonzero"/></g><g clip-path="url(#bd9a7e82f0)"><g fill="#000000" fill-opacity="1"><g transform="translate(0.496326, 19.032425)"><g><path d="M 14.9375 -10.921875 L 11.765625 0 L 10.171875 0 L 7.625 -8.796875 L 5 0 L 3.421875 0.015625 L 0.359375 -10.921875 L 1.875 -10.921875 L 4.265625 -1.65625 L 6.890625 -10.921875 L 8.5 -10.921875 L 11 -1.6875 L 13.40625 -10.921875 Z M 14.9375 -10.921875 "/></g></g></g></g><g fill="#000000" fill-opacity="1"><g transform="translate(15.789288, 19.032425)"><g><path d="M 9.046875 -4.625 C 9.046875 -4.351562 9.03125 -4.066406 9 -3.765625 L 2.125 -3.765625 C 2.175781 -2.910156 2.46875 -2.242188 3 -1.765625 C 3.53125 -1.296875 4.171875 -1.0625 4.921875 -1.0625 C 5.535156 -1.0625 6.046875 -1.203125 6.453125 -1.484375 C 6.867188 -1.773438 7.160156 -2.164062 7.328125 -2.65625 L 8.875 -2.65625 C 8.644531 -1.820312 8.179688 -1.144531 7.484375 -0.625 C 6.796875 -0.113281 5.941406 0.140625 4.921875 0.140625 C 4.109375 0.140625 3.378906 -0.0390625 2.734375 -0.40625 C 2.085938 -0.769531 1.582031 -1.289062 1.21875 -1.96875 C 0.851562 -2.644531 0.671875 -3.425781 0.671875 -4.3125 C 0.671875 -5.195312 0.847656 -5.972656 1.203125 -6.640625 C 1.554688 -7.304688 2.054688 -7.820312 2.703125 -8.1875 C 3.347656 -8.550781 4.085938 -8.734375 4.921875 -8.734375 C 5.734375 -8.734375 6.453125 -8.550781 7.078125 -8.1875 C 7.710938 -7.832031 8.195312 -7.34375 8.53125 -6.71875 C 8.875 -6.101562 9.046875 -5.40625 9.046875 -4.625 Z M 7.5625 -4.921875 C 7.5625 -5.460938 7.441406 -5.925781 7.203125 -6.3125 C 6.960938 -6.707031 6.632812 -7.003906 6.21875 -7.203125 C 5.8125 -7.410156 5.359375 -7.515625 4.859375 -7.515625 C 4.140625 -7.515625 3.523438 -7.285156 3.015625 -6.828125 C 2.503906 -6.367188 2.210938 -5.734375 2.140625 -4.921875 Z M 7.5625 -4.921875 "/></g></g></g><g fill="#000000" fill-opacity="1"><g transform="translate(25.504084, 19.032425)"><g/></g></g><g fill="#000000" fill-opacity="1"><g transform="translate(29.687711, 19.032425)"><g><path d="M 2.640625 -9.765625 L 2.640625 -6.109375 L 6.609375 -6.109375 L 6.609375 -4.9375 L 2.640625 -4.9375 L 2.640625 -1.171875 L 7.078125 -1.171875 L 7.078125 0 L 1.203125 0 L 1.203125 -10.9375 L 7.078125 -10.9375 L 7.078125 -9.765625 Z M 2.640625 -9.765625 "/></g></g></g><g fill="#000000" fill-opacity="1"><g transform="translate(37.725918, 19.032425)"><g><path d="M 5.390625 -8.75 C 6.429688 -8.75 7.273438 -8.429688 7.921875 -7.796875 C 8.578125 -7.160156 8.90625 -6.25 8.90625 -5.0625 L 8.90625 0 L 7.484375 0 L 7.484375 -4.859375 C 7.484375 -5.710938 7.269531 -6.363281 6.84375 -6.8125 C 6.414062 -7.269531 5.832031 -7.5 5.09375 -7.5 C 4.34375 -7.5 3.742188 -7.265625 3.296875 -6.796875 C 2.859375 -6.328125 2.640625 -5.644531 2.640625 -4.75 L 2.640625 0 L 1.203125 0 L 1.203125 -8.59375 L 2.640625 -8.59375 L 2.640625 -7.359375 C 2.921875 -7.804688 3.300781 -8.148438 3.78125 -8.390625 C 4.269531 -8.628906 4.804688 -8.75 5.390625 -8.75 Z M 5.390625 -8.75 "/></g></g></g><g fill="#000000" fill-opacity="1"><g transform="translate(47.754092, 19.032425)"><g><path d="M 4.75 -8.734375 C 5.488281 -8.734375 6.132812 -8.566406 6.6875 -8.234375 C 7.25 -7.910156 7.671875 -7.503906 7.953125 -7.015625 L 7.953125 -8.59375 L 9.390625 -8.59375 L 9.390625 0.1875 C 9.390625 0.96875 9.222656 1.664062 8.890625 2.28125 C 8.554688 2.894531 8.078125 3.375 7.453125 3.71875 C 6.828125 4.0625 6.101562 4.234375 5.28125 4.234375 C 4.15625 4.234375 3.210938 3.96875 2.453125 3.4375 C 1.703125 2.90625 1.257812 2.175781 1.125 1.25 L 2.53125 1.25 C 2.695312 1.769531 3.023438 2.191406 3.515625 2.515625 C 4.003906 2.835938 4.59375 3 5.28125 3 C 6.0625 3 6.703125 2.75 7.203125 2.25 C 7.703125 1.757812 7.953125 1.070312 7.953125 0.1875 L 7.953125 -1.609375 C 7.660156 -1.109375 7.238281 -0.691406 6.6875 -0.359375 C 6.132812 -0.0234375 5.488281 0.140625 4.75 0.140625 C 3.988281 0.140625 3.296875 -0.046875 2.671875 -0.421875 C 2.046875 -0.796875 1.554688 -1.320312 1.203125 -2 C 0.847656 -2.6875 0.671875 -3.460938 0.671875 -4.328125 C 0.671875 -5.203125 0.847656 -5.96875 1.203125 -6.625 C 1.554688 -7.289062 2.046875 -7.804688 2.671875 -8.171875 C 3.296875 -8.546875 3.988281 -8.734375 4.75 -8.734375 Z M 7.953125 -4.3125 C 7.953125 -4.957031 7.816406 -5.519531 7.546875 -6 C 7.285156 -6.476562 6.929688 -6.84375 6.484375 -7.09375 C 6.046875 -7.351562 5.5625 -7.484375 5.03125 -7.484375 C 4.5 -7.484375 4.015625 -7.359375 3.578125 -7.109375 C 3.140625 -6.859375 2.785156 -6.492188 2.515625 -6.015625 C 2.253906 -5.535156 2.125 -4.972656 2.125 -4.328125 C 2.125 -3.671875 2.253906 -3.097656 2.515625 -2.609375 C 2.785156 -2.117188 3.140625 -1.742188 3.578125 -1.484375 C 4.015625 -1.234375 4.5 -1.109375 5.03125 -1.109375 C 5.5625 -1.109375 6.046875 -1.234375 6.484375 -1.484375 C 6.929688 -1.742188 7.285156 -2.117188 7.546875 -2.609375 C 7.816406 -3.097656 7.953125 -3.664062 7.953125 -4.3125 Z M 7.953125 -4.3125 "/></g></g></g><g fill="#000000" fill-opacity="1"><g transform="translate(58.346355, 19.032425)"><g><path d="M 1.9375 -9.984375 C 1.664062 -9.984375 1.4375 -10.078125 1.25 -10.265625 C 1.0625 -10.453125 0.96875 -10.679688 0.96875 -10.953125 C 0.96875 -11.222656 1.0625 -11.453125 1.25 -11.640625 C 1.4375 -11.828125 1.664062 -11.921875 1.9375 -11.921875 C 2.195312 -11.921875 2.421875 -11.828125 2.609375 -11.640625 C 2.796875 -11.453125 2.890625 -11.222656 2.890625 -10.953125 C 2.890625 -10.679688 2.796875 -10.453125 2.609375 -10.265625 C 2.421875 -10.078125 2.195312 -9.984375 1.9375 -9.984375 Z M 2.640625 -8.59375 L 2.640625 0 L 1.203125 0 L 1.203125 -8.59375 Z M 2.640625 -8.59375 "/></g></g></g><g fill="#000000" fill-opacity="1"><g transform="translate(62.200936, 19.032425)"><g><path d="M 5.390625 -8.75 C 6.429688 -8.75 7.273438 -8.429688 7.921875 -7.796875 C 8.578125 -7.160156 8.90625 -6.25 8.90625 -5.0625 L 8.90625 0 L 7.484375 0 L 7.484375 -4.859375 C 7.484375 -5.710938 7.269531 -6.363281 6.84375 -6.8125 C 6.414062 -7.269531 5.832031 -7.5 5.09375 -7.5 C 4.34375 -7.5 3.742188 -7.265625 3.296875 -6.796875 C 2.859375 -6.328125 2.640625 -5.644531 2.640625 -4.75 L 2.640625 0 L 1.203125 0 L 1.203125 -8.59375 L 2.640625 -8.59375 L 2.640625 -7.359375 C 2.921875 -7.804688 3.300781 -8.148438 3.78125 -8.390625 C 4.269531 -8.628906 4.804688 -8.75 5.390625 -8.75 Z M 5.390625 -8.75 "/></g></g></g><g fill="#000000" fill-opacity="1"><g transform="translate(72.229109, 19.032425)"><g><path d="M 9.046875 -4.625 C 9.046875 -4.351562 9.03125 -4.066406 9 -3.765625 L 2.125 -3.765625 C 2.175781 -2.910156 2.46875 -2.242188 3 -1.765625 C 3.53125 -1.296875 4.171875 -1.0625 4.921875 -1.0625 C 5.535156 -1.0625 6.046875 -1.203125 6.453125 -1.484375 C 6.867188 -1.773438 7.160156 -2.164062 7.328125 -2.65625 L 8.875 -2.65625 C 8.644531 -1.820312 8.179688 -1.144531 7.484375 -0.625 C 6.796875 -0.113281 5.941406 0.140625 4.921875 0.140625 C 4.109375 0.140625 3.378906 -0.0390625 2.734375 -0.40625 C 2.085938 -0.769531 1.582031 -1.289062 1.21875 -1.96875 C 0.851562 -2.644531 0.671875 -3.425781 0.671875 -4.3125 C 0.671875 -5.195312 0.847656 -5.972656 1.203125 -6.640625 C 1.554688 -7.304688 2.054688 -7.820312 2.703125 -8.1875 C 3.347656 -8.550781 4.085938 -8.734375 4.921875 -8.734375 C 5.734375 -8.734375 6.453125 -8.550781 7.078125 -8.1875 C 7.710938 -7.832031 8.195312 -7.34375 8.53125 -6.71875 C 8.875 -6.101562 9.046875 -5.40625 9.046875 -4.625 Z M 7.5625 -4.921875 C 7.5625 -5.460938 7.441406 -5.925781 7.203125 -6.3125 C 6.960938 -6.707031 6.632812 -7.003906 6.21875 -7.203125 C 5.8125 -7.410156 5.359375 -7.515625 4.859375 -7.515625 C 4.140625 -7.515625 3.523438 -7.285156 3.015625 -6.828125 C 2.503906 -6.367188 2.210938 -5.734375 2.140625 -4.921875 Z M 7.5625 -4.921875 "/></g></g></g><g fill="#000000" fill-opacity="1"><g transform="translate(81.943906, 19.032425)"><g><path d="M 9.046875 -4.625 C 9.046875 -4.351562 9.03125 -4.066406 9 -3.765625 L 2.125 -3.765625 C 2.175781 -2.910156 2.46875 -2.242188 3 -1.765625 C 3.53125 -1.296875 4.171875 -1.0625 4.921875 -1.0625 C 5.535156 -1.0625 6.046875 -1.203125 6.453125 -1.484375 C 6.867188 -1.773438 7.160156 -2.164062 7.328125 -2.65625 L 8.875 -2.65625 C 8.644531 -1.820312 8.179688 -1.144531 7.484375 -0.625 C 6.796875 -0.113281 5.941406 0.140625 4.921875 0.140625 C 4.109375 0.140625 3.378906 -0.0390625 2.734375 -0.40625 C 2.085938 -0.769531 1.582031 -1.289062 1.21875 -1.96875 C 0.851562 -2.644531 0.671875 -3.425781 0.671875 -4.3125 C 0.671875 -5.195312 0.847656 -5.972656 1.203125 -6.640625 C 1.554688 -7.304688 2.054688 -7.820312 2.703125 -8.1875 C 3.347656 -8.550781 4.085938 -8.734375 4.921875 -8.734375 C 5.734375 -8.734375 6.453125 -8.550781 7.078125 -8.1875 C 7.710938 -7.832031 8.195312 -7.34375 8.53125 -6.71875 C 8.875 -6.101562 9.046875 -5.40625 9.046875 -4.625 Z M 7.5625 -4.921875 C 7.5625 -5.460938 7.441406 -5.925781 7.203125 -6.3125 C 6.960938 -6.707031 6.632812 -7.003906 6.21875 -7.203125 C 5.8125 -7.410156 5.359375 -7.515625 4.859375 -7.515625 C 4.140625 -7.515625 3.523438 -7.285156 3.015625 -6.828125 C 2.503906 -6.367188 2.210938 -5.734375 2.140625 -4.921875 Z M 7.5625 -4.921875 "/></g></g></g><g fill="#000000" fill-opacity="1"><g transform="translate(91.658702, 19.032425)"><g><path d="M 2.640625 -7.1875 C 2.890625 -7.6875 3.242188 -8.070312 3.703125 -8.34375 C 4.171875 -8.613281 4.738281 -8.75 5.40625 -8.75 L 5.40625 -7.265625 L 5.03125 -7.265625 C 3.4375 -7.265625 2.640625 -6.398438 2.640625 -4.671875 L 2.640625 0 L 1.203125 0 L 1.203125 -8.59375 L 2.640625 -8.59375 Z M 2.640625 -7.1875 "/></g></g></g><g fill="#000000" fill-opacity="1"><g transform="translate(0.496326, 40.971151)"><g><path d="M 7.9375 -10.921875 L 7.9375 -9.765625 L 4.953125 -9.765625 L 4.953125 0 L 3.53125 0 L 3.53125 -9.765625 L 0.53125 -9.765625 L 0.53125 -10.921875 Z M 7.9375 -10.921875 "/></g></g></g><g fill="#000000" fill-opacity="1"><g transform="translate(8.973261, 40.971151)"><g><path d="M 4.953125 0.140625 C 4.148438 0.140625 3.421875 -0.0390625 2.765625 -0.40625 C 2.109375 -0.769531 1.59375 -1.289062 1.21875 -1.96875 C 0.851562 -2.644531 0.671875 -3.425781 0.671875 -4.3125 C 0.671875 -5.1875 0.859375 -5.957031 1.234375 -6.625 C 1.617188 -7.300781 2.140625 -7.820312 2.796875 -8.1875 C 3.460938 -8.550781 4.203125 -8.734375 5.015625 -8.734375 C 5.828125 -8.734375 6.5625 -8.550781 7.21875 -8.1875 C 7.882812 -7.820312 8.40625 -7.304688 8.78125 -6.640625 C 9.164062 -5.972656 9.359375 -5.195312 9.359375 -4.3125 C 9.359375 -3.425781 9.160156 -2.644531 8.765625 -1.96875 C 8.378906 -1.289062 7.847656 -0.769531 7.171875 -0.40625 C 6.503906 -0.0390625 5.765625 0.140625 4.953125 0.140625 Z M 4.953125 -1.109375 C 5.460938 -1.109375 5.941406 -1.226562 6.390625 -1.46875 C 6.835938 -1.707031 7.203125 -2.066406 7.484375 -2.546875 C 7.765625 -3.035156 7.90625 -3.625 7.90625 -4.3125 C 7.90625 -5 7.765625 -5.582031 7.484375 -6.0625 C 7.210938 -6.539062 6.859375 -6.894531 6.421875 -7.125 C 5.984375 -7.363281 5.507812 -7.484375 5 -7.484375 C 4.476562 -7.484375 4 -7.363281 3.5625 -7.125 C 3.132812 -6.894531 2.785156 -6.539062 2.515625 -6.0625 C 2.253906 -5.582031 2.125 -5 2.125 -4.3125 C 2.125 -3.613281 2.253906 -3.019531 2.515625 -2.53125 C 2.773438 -2.050781 3.117188 -1.691406 3.546875 -1.453125 C 3.972656 -1.222656 4.441406 -1.109375 4.953125 -1.109375 Z M 4.953125 -1.109375 "/></g></g></g><g fill="#000000" fill-opacity="1"><g transform="translate(19.001435, 40.971151)"><g><path d="M 11.53125 -8.75 C 12.195312 -8.75 12.789062 -8.609375 13.3125 -8.328125 C 13.84375 -8.054688 14.257812 -7.640625 14.5625 -7.078125 C 14.863281 -6.523438 15.015625 -5.851562 15.015625 -5.0625 L 15.015625 0 L 13.609375 0 L 13.609375 -4.859375 C 13.609375 -5.710938 13.394531 -6.363281 12.96875 -6.8125 C 12.539062 -7.269531 11.96875 -7.5 11.25 -7.5 C 10.507812 -7.5 9.921875 -7.257812 9.484375 -6.78125 C 9.046875 -6.3125 8.828125 -5.628906 8.828125 -4.734375 L 8.828125 0 L 7.40625 0 L 7.40625 -4.859375 C 7.40625 -5.710938 7.191406 -6.363281 6.765625 -6.8125 C 6.347656 -7.269531 5.78125 -7.5 5.0625 -7.5 C 4.320312 -7.5 3.734375 -7.257812 3.296875 -6.78125 C 2.859375 -6.3125 2.640625 -5.628906 2.640625 -4.734375 L 2.640625 0 L 1.203125 0 L 1.203125 -8.59375 L 2.640625 -8.59375 L 2.640625 -7.34375 C 2.921875 -7.800781 3.296875 -8.148438 3.765625 -8.390625 C 4.242188 -8.628906 4.769531 -8.75 5.34375 -8.75 C 6.0625 -8.75 6.695312 -8.582031 7.25 -8.25 C 7.8125 -7.925781 8.226562 -7.453125 8.5 -6.828125 C 8.738281 -7.429688 9.132812 -7.898438 9.6875 -8.234375 C 10.238281 -8.578125 10.851562 -8.75 11.53125 -8.75 Z M 11.53125 -8.75 "/></g></g></g><g fill="#000000" fill-opacity="1"><g transform="translate(35.140525, 40.971151)"><g><path d="M 4.953125 0.140625 C 4.148438 0.140625 3.421875 -0.0390625 2.765625 -0.40625 C 2.109375 -0.769531 1.59375 -1.289062 1.21875 -1.96875 C 0.851562 -2.644531 0.671875 -3.425781 0.671875 -4.3125 C 0.671875 -5.1875 0.859375 -5.957031 1.234375 -6.625 C 1.617188 -7.300781 2.140625 -7.820312 2.796875 -8.1875 C 3.460938 -8.550781 4.203125 -8.734375 5.015625 -8.734375 C 5.828125 -8.734375 6.5625 -8.550781 7.21875 -8.1875 C 7.882812 -7.820312 8.40625 -7.304688 8.78125 -6.640625 C 9.164062 -5.972656 9.359375 -5.195312 9.359375 -4.3125 C 9.359375 -3.425781 9.160156 -2.644531 8.765625 -1.96875 C 8.378906 -1.289062 7.847656 -0.769531 7.171875 -0.40625 C 6.503906 -0.0390625 5.765625 0.140625 4.953125 0.140625 Z M 4.953125 -1.109375 C 5.460938 -1.109375 5.941406 -1.226562 6.390625 -1.46875 C 6.835938 -1.707031 7.203125 -2.066406 7.484375 -2.546875 C 7.765625 -3.035156 7.90625 -3.625 7.90625 -4.3125 C 7.90625 -5 7.765625 -5.582031 7.484375 -6.0625 C 7.210938 -6.539062 6.859375 -6.894531 6.421875 -7.125 C 5.984375 -7.363281 5.507812 -7.484375 5 -7.484375 C 4.476562 -7.484375 4 -7.363281 3.5625 -7.125 C 3.132812 -6.894531 2.785156 -6.539062 2.515625 -6.0625 C 2.253906 -5.582031 2.125 -5 2.125 -4.3125 C 2.125 -3.613281 2.253906 -3.019531 2.515625 -2.53125 C 2.773438 -2.050781 3.117188 -1.691406 3.546875 -1.453125 C 3.972656 -1.222656 4.441406 -1.109375 4.953125 -1.109375 Z M 4.953125 -1.109375 "/></g></g></g><g fill="#000000" fill-opacity="1"><g transform="translate(45.168699, 40.971151)"><g><path d="M 2.640625 -7.1875 C 2.890625 -7.6875 3.242188 -8.070312 3.703125 -8.34375 C 4.171875 -8.613281 4.738281 -8.75 5.40625 -8.75 L 5.40625 -7.265625 L 5.03125 -7.265625 C 3.4375 -7.265625 2.640625 -6.398438 2.640625 -4.671875 L 2.640625 0 L 1.203125 0 L 1.203125 -8.59375 L 2.640625 -8.59375 Z M 2.640625 -7.1875 "/></g></g></g><g fill="#000000" fill-opacity="1"><g transform="translate(51.013245, 40.971151)"><g><path d="M 2.640625 -7.1875 C 2.890625 -7.6875 3.242188 -8.070312 3.703125 -8.34375 C 4.171875 -8.613281 4.738281 -8.75 5.40625 -8.75 L 5.40625 -7.265625 L 5.03125 -7.265625 C 3.4375 -7.265625 2.640625 -6.398438 2.640625 -4.671875 L 2.640625 0 L 1.203125 0 L 1.203125 -8.59375 L 2.640625 -8.59375 Z M 2.640625 -7.1875 "/></g></g></g><g fill="#000000" fill-opacity="1"><g transform="translate(56.857792, 40.971151)"><g><path d="M 4.953125 0.140625 C 4.148438 0.140625 3.421875 -0.0390625 2.765625 -0.40625 C 2.109375 -0.769531 1.59375 -1.289062 1.21875 -1.96875 C 0.851562 -2.644531 0.671875 -3.425781 0.671875 -4.3125 C 0.671875 -5.1875 0.859375 -5.957031 1.234375 -6.625 C 1.617188 -7.300781 2.140625 -7.820312 2.796875 -8.1875 C 3.460938 -8.550781 4.203125 -8.734375 5.015625 -8.734375 C 5.828125 -8.734375 6.5625 -8.550781 7.21875 -8.1875 C 7.882812 -7.820312 8.40625 -7.304688 8.78125 -6.640625 C 9.164062 -5.972656 9.359375 -5.195312 9.359375 -4.3125 C 9.359375 -3.425781 9.160156 -2.644531 8.765625 -1.96875 C 8.378906 -1.289062 7.847656 -0.769531 7.171875 -0.40625 C 6.503906 -0.0390625 5.765625 0.140625 4.953125 0.140625 Z M 4.953125 -1.109375 C 5.460938 -1.109375 5.941406 -1.226562 6.390625 -1.46875 C 6.835938 -1.707031 7.203125 -2.066406 7.484375 -2.546875 C 7.765625 -3.035156 7.90625 -3.625 7.90625 -4.3125 C 7.90625 -5 7.765625 -5.582031 7.484375 -6.0625 C 7.210938 -6.539062 6.859375 -6.894531 6.421875 -7.125 C 5.984375 -7.363281 5.507812 -7.484375 5 -7.484375 C 4.476562 -7.484375 4 -7.363281 3.5625 -7.125 C 3.132812 -6.894531 2.785156 -6.539062 2.515625 -6.0625 C 2.253906 -5.582031 2.125 -5 2.125 -4.3125 C 2.125 -3.613281 2.253906 -3.019531 2.515625 -2.53125 C 2.773438 -2.050781 3.117188 -1.691406 3.546875 -1.453125 C 3.972656 -1.222656 4.441406 -1.109375 4.953125 -1.109375 Z M 4.953125 -1.109375 "/></g></g></g><g fill="#000000" fill-opacity="1"><g transform="translate(66.885966, 40.971151)"><g><path d="M 12.640625 -8.59375 L 9.96875 0 L 8.5 0 L 6.421875 -6.8125 L 4.359375 0 L 2.890625 0 L 0.1875 -8.59375 L 1.640625 -8.59375 L 3.625 -1.375 L 5.75 -8.59375 L 7.203125 -8.59375 L 9.296875 -1.359375 L 11.234375 -8.59375 Z M 12.640625 -8.59375 "/></g></g></g><g fill="#000000" fill-opacity="1"><g transform="translate(79.734565, 40.971151)"><g><path d="M 1.421875 -10.921875 L 3.015625 -10.921875 L 1.5 -7.359375 L 0.5 -7.359375 Z M 1.421875 -10.921875 "/></g></g></g><g fill="#000000" fill-opacity="1"><g transform="translate(83.166076, 40.971151)"><g><path d="M 4.25 0.140625 C 3.59375 0.140625 3 0.03125 2.46875 -0.1875 C 1.945312 -0.414062 1.535156 -0.726562 1.234375 -1.125 C 0.929688 -1.53125 0.765625 -1.992188 0.734375 -2.515625 L 2.203125 -2.515625 C 2.242188 -2.085938 2.445312 -1.738281 2.8125 -1.46875 C 3.175781 -1.195312 3.648438 -1.0625 4.234375 -1.0625 C 4.773438 -1.0625 5.203125 -1.179688 5.515625 -1.421875 C 5.828125 -1.660156 5.984375 -1.960938 5.984375 -2.328125 C 5.984375 -2.710938 5.816406 -2.992188 5.484375 -3.171875 C 5.148438 -3.359375 4.632812 -3.539062 3.9375 -3.71875 C 3.300781 -3.882812 2.78125 -4.050781 2.375 -4.21875 C 1.96875 -4.394531 1.617188 -4.648438 1.328125 -4.984375 C 1.046875 -5.328125 0.90625 -5.773438 0.90625 -6.328125 C 0.90625 -6.765625 1.035156 -7.164062 1.296875 -7.53125 C 1.554688 -7.90625 1.925781 -8.195312 2.40625 -8.40625 C 2.894531 -8.625 3.445312 -8.734375 4.0625 -8.734375 C 5.007812 -8.734375 5.773438 -8.488281 6.359375 -8 C 6.941406 -7.519531 7.253906 -6.863281 7.296875 -6.03125 L 5.875 -6.03125 C 5.84375 -6.476562 5.660156 -6.835938 5.328125 -7.109375 C 5.003906 -7.378906 4.566406 -7.515625 4.015625 -7.515625 C 3.503906 -7.515625 3.09375 -7.40625 2.78125 -7.1875 C 2.476562 -6.96875 2.328125 -6.679688 2.328125 -6.328125 C 2.328125 -6.046875 2.421875 -5.8125 2.609375 -5.625 C 2.796875 -5.445312 3.023438 -5.300781 3.296875 -5.1875 C 3.578125 -5.082031 3.960938 -4.960938 4.453125 -4.828125 C 5.066406 -4.660156 5.566406 -4.492188 5.953125 -4.328125 C 6.335938 -4.171875 6.664062 -3.929688 6.9375 -3.609375 C 7.21875 -3.285156 7.363281 -2.859375 7.375 -2.328125 C 7.375 -1.859375 7.242188 -1.4375 6.984375 -1.0625 C 6.722656 -0.6875 6.351562 -0.390625 5.875 -0.171875 C 5.40625 0.0351562 4.863281 0.140625 4.25 0.140625 Z M 4.25 0.140625 "/></g></g></g><g fill="#000000" fill-opacity="1"><g transform="translate(0.496326, 62.909877)"><g><path d="M 4.671875 0.109375 C 3.953125 0.109375 3.304688 -0.015625 2.734375 -0.265625 C 2.160156 -0.523438 1.710938 -0.878906 1.390625 -1.328125 C 1.066406 -1.785156 0.898438 -2.316406 0.890625 -2.921875 L 2.40625 -2.921875 C 2.457031 -2.398438 2.671875 -1.960938 3.046875 -1.609375 C 3.421875 -1.265625 3.960938 -1.09375 4.671875 -1.09375 C 5.347656 -1.09375 5.878906 -1.257812 6.265625 -1.59375 C 6.660156 -1.9375 6.859375 -2.378906 6.859375 -2.921875 C 6.859375 -3.335938 6.742188 -3.675781 6.515625 -3.9375 C 6.285156 -4.195312 6 -4.394531 5.65625 -4.53125 C 5.3125 -4.664062 4.847656 -4.8125 4.265625 -4.96875 C 3.546875 -5.15625 2.96875 -5.34375 2.53125 -5.53125 C 2.09375 -5.71875 1.71875 -6.007812 1.40625 -6.40625 C 1.101562 -6.8125 0.953125 -7.359375 0.953125 -8.046875 C 0.953125 -8.640625 1.101562 -9.164062 1.40625 -9.625 C 1.707031 -10.082031 2.132812 -10.4375 2.6875 -10.6875 C 3.238281 -10.9375 3.867188 -11.0625 4.578125 -11.0625 C 5.597656 -11.0625 6.4375 -10.804688 7.09375 -10.296875 C 7.75 -9.785156 8.117188 -9.109375 8.203125 -8.265625 L 6.625 -8.265625 C 6.570312 -8.679688 6.351562 -9.046875 5.96875 -9.359375 C 5.582031 -9.679688 5.070312 -9.84375 4.4375 -9.84375 C 3.84375 -9.84375 3.351562 -9.6875 2.96875 -9.375 C 2.59375 -9.070312 2.40625 -8.644531 2.40625 -8.09375 C 2.40625 -7.6875 2.519531 -7.359375 2.75 -7.109375 C 2.976562 -6.859375 3.253906 -6.664062 3.578125 -6.53125 C 3.910156 -6.40625 4.375 -6.257812 4.96875 -6.09375 C 5.6875 -5.894531 6.265625 -5.695312 6.703125 -5.5 C 7.140625 -5.3125 7.515625 -5.015625 7.828125 -4.609375 C 8.148438 -4.210938 8.3125 -3.671875 8.3125 -2.984375 C 8.3125 -2.441406 8.164062 -1.9375 7.875 -1.46875 C 7.59375 -1 7.175781 -0.617188 6.625 -0.328125 C 6.070312 -0.0351562 5.421875 0.109375 4.671875 0.109375 Z M 4.671875 0.109375 "/></g></g></g><g fill="#000000" fill-opacity="1"><g transform="translate(9.694039, 62.909877)"><g><path d="M 4.953125 0.140625 C 4.148438 0.140625 3.421875 -0.0390625 2.765625 -0.40625 C 2.109375 -0.769531 1.59375 -1.289062 1.21875 -1.96875 C 0.851562 -2.644531 0.671875 -3.425781 0.671875 -4.3125 C 0.671875 -5.1875 0.859375 -5.957031 1.234375 -6.625 C 1.617188 -7.300781 2.140625 -7.820312 2.796875 -8.1875 C 3.460938 -8.550781 4.203125 -8.734375 5.015625 -8.734375 C 5.828125 -8.734375 6.5625 -8.550781 7.21875 -8.1875 C 7.882812 -7.820312 8.40625 -7.304688 8.78125 -6.640625 C 9.164062 -5.972656 9.359375 -5.195312 9.359375 -4.3125 C 9.359375 -3.425781 9.160156 -2.644531 8.765625 -1.96875 C 8.378906 -1.289062 7.847656 -0.769531 7.171875 -0.40625 C 6.503906 -0.0390625 5.765625 0.140625 4.953125 0.140625 Z M 4.953125 -1.109375 C 5.460938 -1.109375 5.941406 -1.226562 6.390625 -1.46875 C 6.835938 -1.707031 7.203125 -2.066406 7.484375 -2.546875 C 7.765625 -3.035156 7.90625 -3.625 7.90625 -4.3125 C 7.90625 -5 7.765625 -5.582031 7.484375 -6.0625 C 7.210938 -6.539062 6.859375 -6.894531 6.421875 -7.125 C 5.984375 -7.363281 5.507812 -7.484375 5 -7.484375 C 4.476562 -7.484375 4 -7.363281 3.5625 -7.125 C 3.132812 -6.894531 2.785156 -6.539062 2.515625 -6.0625 C 2.253906 -5.582031 2.125 -5 2.125 -4.3125 C 2.125 -3.613281 2.253906 -3.019531 2.515625 -2.53125 C 2.773438 -2.050781 3.117188 -1.691406 3.546875 -1.453125 C 3.972656 -1.222656 4.441406 -1.109375 4.953125 -1.109375 Z M 4.953125 -1.109375 "/></g></g></g><g fill="#000000" fill-opacity="1"><g transform="translate(19.722213, 62.909877)"><g><path d="M 2.640625 -11.59375 L 2.640625 0 L 1.203125 0 L 1.203125 -11.59375 Z M 2.640625 -11.59375 "/></g></g></g><g fill="#000000" fill-opacity="1"><g transform="translate(23.576793, 62.909877)"><g><path d="M 8.828125 -8.59375 L 8.828125 0 L 7.390625 0 L 7.390625 -1.265625 C 7.117188 -0.828125 6.738281 -0.484375 6.25 -0.234375 C 5.769531 0.00390625 5.238281 0.125 4.65625 0.125 C 3.988281 0.125 3.382812 -0.0078125 2.84375 -0.28125 C 2.3125 -0.5625 1.890625 -0.976562 1.578125 -1.53125 C 1.273438 -2.082031 1.125 -2.757812 1.125 -3.5625 L 1.125 -8.59375 L 2.53125 -8.59375 L 2.53125 -3.75 C 2.53125 -2.894531 2.742188 -2.238281 3.171875 -1.78125 C 3.609375 -1.332031 4.195312 -1.109375 4.9375 -1.109375 C 5.695312 -1.109375 6.296875 -1.34375 6.734375 -1.8125 C 7.171875 -2.28125 7.390625 -2.96875 7.390625 -3.875 L 7.390625 -8.59375 Z M 8.828125 -8.59375 "/></g></g></g><g fill="#000000" fill-opacity="1"><g transform="translate(33.604967, 62.909877)"><g><path d="M 2.953125 -7.40625 L 2.953125 -2.34375 C 2.953125 -1.925781 3.039062 -1.628906 3.21875 -1.453125 C 3.394531 -1.285156 3.703125 -1.203125 4.140625 -1.203125 L 5.1875 -1.203125 L 5.1875 0 L 3.90625 0 C 3.113281 0 2.515625 -0.179688 2.109375 -0.546875 C 1.710938 -0.910156 1.515625 -1.507812 1.515625 -2.34375 L 1.515625 -7.40625 L 0.40625 -7.40625 L 0.40625 -8.59375 L 1.515625 -8.59375 L 1.515625 -10.75 L 2.953125 -10.75 L 2.953125 -8.59375 L 5.1875 -8.59375 L 5.1875 -7.40625 Z M 2.953125 -7.40625 "/></g></g></g><g fill="#000000" fill-opacity="1"><g transform="translate(39.308494, 62.909877)"><g><path d="M 1.9375 -9.984375 C 1.664062 -9.984375 1.4375 -10.078125 1.25 -10.265625 C 1.0625 -10.453125 0.96875 -10.679688 0.96875 -10.953125 C 0.96875 -11.222656 1.0625 -11.453125 1.25 -11.640625 C 1.4375 -11.828125 1.664062 -11.921875 1.9375 -11.921875 C 2.195312 -11.921875 2.421875 -11.828125 2.609375 -11.640625 C 2.796875 -11.453125 2.890625 -11.222656 2.890625 -10.953125 C 2.890625 -10.679688 2.796875 -10.453125 2.609375 -10.265625 C 2.421875 -10.078125 2.195312 -9.984375 1.9375 -9.984375 Z M 2.640625 -8.59375 L 2.640625 0 L 1.203125 0 L 1.203125 -8.59375 Z M 2.640625 -8.59375 "/></g></g></g><g fill="#000000" fill-opacity="1"><g transform="translate(43.163075, 62.909877)"><g><path d="M 4.953125 0.140625 C 4.148438 0.140625 3.421875 -0.0390625 2.765625 -0.40625 C 2.109375 -0.769531 1.59375 -1.289062 1.21875 -1.96875 C 0.851562 -2.644531 0.671875 -3.425781 0.671875 -4.3125 C 0.671875 -5.1875 0.859375 -5.957031 1.234375 -6.625 C 1.617188 -7.300781 2.140625 -7.820312 2.796875 -8.1875 C 3.460938 -8.550781 4.203125 -8.734375 5.015625 -8.734375 C 5.828125 -8.734375 6.5625 -8.550781 7.21875 -8.1875 C 7.882812 -7.820312 8.40625 -7.304688 8.78125 -6.640625 C 9.164062 -5.972656 9.359375 -5.195312 9.359375 -4.3125 C 9.359375 -3.425781 9.160156 -2.644531 8.765625 -1.96875 C 8.378906 -1.289062 7.847656 -0.769531 7.171875 -0.40625 C 6.503906 -0.0390625 5.765625 0.140625 4.953125 0.140625 Z M 4.953125 -1.109375 C 5.460938 -1.109375 5.941406 -1.226562 6.390625 -1.46875 C 6.835938 -1.707031 7.203125 -2.066406 7.484375 -2.546875 C 7.765625 -3.035156 7.90625 -3.625 7.90625 -4.3125 C 7.90625 -5 7.765625 -5.582031 7.484375 -6.0625 C 7.210938 -6.539062 6.859375 -6.894531 6.421875 -7.125 C 5.984375 -7.363281 5.507812 -7.484375 5 -7.484375 C 4.476562 -7.484375 4 -7.363281 3.5625 -7.125 C 3.132812 -6.894531 2.785156 -6.539062 2.515625 -6.0625 C 2.253906 -5.582031 2.125 -5 2.125 -4.3125 C 2.125 -3.613281 2.253906 -3.019531 2.515625 -2.53125 C 2.773438 -2.050781 3.117188 -1.691406 3.546875 -1.453125 C 3.972656 -1.222656 4.441406 -1.109375 4.953125 -1.109375 Z M 4.953125 -1.109375 "/></g></g></g><g fill="#000000" fill-opacity="1"><g transform="translate(53.191248, 62.909877)"><g><path d="M 5.390625 -8.75 C 6.429688 -8.75 7.273438 -8.429688 7.921875 -7.796875 C 8.578125 -7.160156 8.90625 -6.25 8.90625 -5.0625 L 8.90625 0 L 7.484375 0 L 7.484375 -4.859375 C 7.484375 -5.710938 7.269531 -6.363281 6.84375 -6.8125 C 6.414062 -7.269531 5.832031 -7.5 5.09375 -7.5 C 4.34375 -7.5 3.742188 -7.265625 3.296875 -6.796875 C 2.859375 -6.328125 2.640625 -5.644531 2.640625 -4.75 L 2.640625 0 L 1.203125 0 L 1.203125 -8.59375 L 2.640625 -8.59375 L 2.640625 -7.359375 C 2.921875 -7.804688 3.300781 -8.148438 3.78125 -8.390625 C 4.269531 -8.628906 4.804688 -8.75 5.390625 -8.75 Z M 5.390625 -8.75 "/></g></g></g><g fill="#000000" fill-opacity="1"><g transform="translate(63.219422, 62.909877)"><g><path d="M 4.25 0.140625 C 3.59375 0.140625 3 0.03125 2.46875 -0.1875 C 1.945312 -0.414062 1.535156 -0.726562 1.234375 -1.125 C 0.929688 -1.53125 0.765625 -1.992188 0.734375 -2.515625 L 2.203125 -2.515625 C 2.242188 -2.085938 2.445312 -1.738281 2.8125 -1.46875 C 3.175781 -1.195312 3.648438 -1.0625 4.234375 -1.0625 C 4.773438 -1.0625 5.203125 -1.179688 5.515625 -1.421875 C 5.828125 -1.660156 5.984375 -1.960938 5.984375 -2.328125 C 5.984375 -2.710938 5.816406 -2.992188 5.484375 -3.171875 C 5.148438 -3.359375 4.632812 -3.539062 3.9375 -3.71875 C 3.300781 -3.882812 2.78125 -4.050781 2.375 -4.21875 C 1.96875 -4.394531 1.617188 -4.648438 1.328125 -4.984375 C 1.046875 -5.328125 0.90625 -5.773438 0.90625 -6.328125 C 0.90625 -6.765625 1.035156 -7.164062 1.296875 -7.53125 C 1.554688 -7.90625 1.925781 -8.195312 2.40625 -8.40625 C 2.894531 -8.625 3.445312 -8.734375 4.0625 -8.734375 C 5.007812 -8.734375 5.773438 -8.488281 6.359375 -8 C 6.941406 -7.519531 7.253906 -6.863281 7.296875 -6.03125 L 5.875 -6.03125 C 5.84375 -6.476562 5.660156 -6.835938 5.328125 -7.109375 C 5.003906 -7.378906 4.566406 -7.515625 4.015625 -7.515625 C 3.503906 -7.515625 3.09375 -7.40625 2.78125 -7.1875 C 2.476562 -6.96875 2.328125 -6.679688 2.328125 -6.328125 C 2.328125 -6.046875 2.421875 -5.8125 2.609375 -5.625 C 2.796875 -5.445312 3.023438 -5.300781 3.296875 -5.1875 C 3.578125 -5.082031 3.960938 -4.960938 4.453125 -4.828125 C 5.066406 -4.660156 5.566406 -4.492188 5.953125 -4.328125 C 6.335938 -4.171875 6.664062 -3.929688 6.9375 -3.609375 C 7.21875 -3.285156 7.363281 -2.859375 7.375 -2.328125 C 7.375 -1.859375 7.242188 -1.4375 6.984375 -1.0625 C 6.722656 -0.6875 6.351562 -0.390625 5.875 -0.171875 C 5.40625 0.0351562 4.863281 0.140625 4.25 0.140625 Z M 4.25 0.140625 "/></g></g></g><g fill="#000000" fill-opacity="1"><g transform="translate(71.398649, 62.909877)"><g><path d="M 2.6875 -1.96875 L 0.921875 2.234375 L -0.03125 2.234375 L 1.109375 -1.96875 Z M 2.6875 -1.96875 "/></g></g></g><g fill="#000000" fill-opacity="1"><g transform="translate(74.501114, 62.909877)"><g/></g></g><g fill="#000000" fill-opacity="1"><g transform="translate(78.684741, 62.909877)"><g><path d="M 7.9375 -10.921875 L 7.9375 -9.765625 L 4.953125 -9.765625 L 4.953125 0 L 3.53125 0 L 3.53125 -9.765625 L 0.53125 -9.765625 L 0.53125 -10.921875 Z M 7.9375 -10.921875 "/></g></g></g><g fill="#000000" fill-opacity="1"><g transform="translate(87.161677, 62.909877)"><g><path d="M 4.953125 0.140625 C 4.148438 0.140625 3.421875 -0.0390625 2.765625 -0.40625 C 2.109375 -0.769531 1.59375 -1.289062 1.21875 -1.96875 C 0.851562 -2.644531 0.671875 -3.425781 0.671875 -4.3125 C 0.671875 -5.1875 0.859375 -5.957031 1.234375 -6.625 C 1.617188 -7.300781 2.140625 -7.820312 2.796875 -8.1875 C 3.460938 -8.550781 4.203125 -8.734375 5.015625 -8.734375 C 5.828125 -8.734375 6.5625 -8.550781 7.21875 -8.1875 C 7.882812 -7.820312 8.40625 -7.304688 8.78125 -6.640625 C 9.164062 -5.972656 9.359375 -5.195312 9.359375 -4.3125 C 9.359375 -3.425781 9.160156 -2.644531 8.765625 -1.96875 C 8.378906 -1.289062 7.847656 -0.769531 7.171875 -0.40625 C 6.503906 -0.0390625 5.765625 0.140625 4.953125 0.140625 Z M 4.953125 -1.109375 C 5.460938 -1.109375 5.941406 -1.226562 6.390625 -1.46875 C 6.835938 -1.707031 7.203125 -2.066406 7.484375 -2.546875 C 7.765625 -3.035156 7.90625 -3.625 7.90625 -4.3125 C 7.90625 -5 7.765625 -5.582031 7.484375 -6.0625 C 7.210938 -6.539062 6.859375 -6.894531 6.421875 -7.125 C 5.984375 -7.363281 5.507812 -7.484375 5 -7.484375 C 4.476562 -7.484375 4 -7.363281 3.5625 -7.125 C 3.132812 -6.894531 2.785156 -6.539062 2.515625 -6.0625 C 2.253906 -5.582031 2.125 -5 2.125 -4.3125 C 2.125 -3.613281 2.253906 -3.019531 2.515625 -2.53125 C 2.773438 -2.050781 3.117188 -1.691406 3.546875 -1.453125 C 3.972656 -1.222656 4.441406 -1.109375 4.953125 -1.109375 Z M 4.953125 -1.109375 "/></g></g></g><g fill="#000000" fill-opacity="1"><g transform="translate(97.18985, 62.909877)"><g><path d="M 0.671875 -4.328125 C 0.671875 -5.203125 0.847656 -5.96875 1.203125 -6.625 C 1.554688 -7.289062 2.046875 -7.804688 2.671875 -8.171875 C 3.296875 -8.546875 3.992188 -8.734375 4.765625 -8.734375 C 5.429688 -8.734375 6.050781 -8.578125 6.625 -8.265625 C 7.195312 -7.953125 7.640625 -7.546875 7.953125 -7.046875 L 7.953125 -11.59375 L 9.390625 -11.59375 L 9.390625 0 L 7.953125 0 L 7.953125 -1.609375 C 7.660156 -1.097656 7.238281 -0.675781 6.6875 -0.34375 C 6.132812 -0.0195312 5.488281 0.140625 4.75 0.140625 C 3.988281 0.140625 3.296875 -0.046875 2.671875 -0.421875 C 2.046875 -0.796875 1.554688 -1.320312 1.203125 -2 C 0.847656 -2.6875 0.671875 -3.460938 0.671875 -4.328125 Z M 7.953125 -4.3125 C 7.953125 -4.957031 7.816406 -5.519531 7.546875 -6 C 7.285156 -6.476562 6.929688 -6.84375 6.484375 -7.09375 C 6.046875 -7.351562 5.5625 -7.484375 5.03125 -7.484375 C 4.5 -7.484375 4.015625 -7.359375 3.578125 -7.109375 C 3.140625 -6.859375 2.785156 -6.492188 2.515625 -6.015625 C 2.253906 -5.535156 2.125 -4.972656 2.125 -4.328125 C 2.125 -3.671875 2.253906 -3.097656 2.515625 -2.609375 C 2.785156 -2.117188 3.140625 -1.742188 3.578125 -1.484375 C 4.015625 -1.234375 4.5 -1.109375 5.03125 -1.109375 C 5.5625 -1.109375 6.046875 -1.234375 6.484375 -1.484375 C 6.929688 -1.742188 7.285156 -2.117188 7.546875 -2.609375 C 7.816406 -3.097656 7.953125 -3.664062 7.953125 -4.3125 Z M 7.953125 -4.3125 "/></g></g></g><g fill="#000000" fill-opacity="1"><g transform="translate(107.782113, 62.909877)"><g><path d="M 0.671875 -4.328125 C 0.671875 -5.203125 0.847656 -5.96875 1.203125 -6.625 C 1.554688 -7.289062 2.046875 -7.804688 2.671875 -8.171875 C 3.296875 -8.546875 3.988281 -8.734375 4.75 -8.734375 C 5.5 -8.734375 6.148438 -8.566406 6.703125 -8.234375 C 7.253906 -7.910156 7.671875 -7.503906 7.953125 -7.015625 L 7.953125 -8.59375 L 9.390625 -8.59375 L 9.390625 0 L 7.953125 0 L 7.953125 -1.59375 C 7.660156 -1.09375 7.234375 -0.675781 6.671875 -0.34375 C 6.117188 -0.0195312 5.472656 0.140625 4.734375 0.140625 C 3.972656 0.140625 3.28125 -0.046875 2.65625 -0.421875 C 2.039062 -0.796875 1.554688 -1.320312 1.203125 -2 C 0.847656 -2.6875 0.671875 -3.460938 0.671875 -4.328125 Z M 7.953125 -4.3125 C 7.953125 -4.957031 7.816406 -5.519531 7.546875 -6 C 7.285156 -6.476562 6.929688 -6.84375 6.484375 -7.09375 C 6.046875 -7.351562 5.5625 -7.484375 5.03125 -7.484375 C 4.5 -7.484375 4.015625 -7.359375 3.578125 -7.109375 C 3.140625 -6.859375 2.785156 -6.492188 2.515625 -6.015625 C 2.253906 -5.535156 2.125 -4.972656 2.125 -4.328125 C 2.125 -3.671875 2.253906 -3.097656 2.515625 -2.609375 C 2.785156 -2.117188 3.140625 -1.742188 3.578125 -1.484375 C 4.015625 -1.234375 4.5 -1.109375 5.03125 -1.109375 C 5.5625 -1.109375 6.046875 -1.234375 6.484375 -1.484375 C 6.929688 -1.742188 7.285156 -2.117188 7.546875 -2.609375 C 7.816406 -3.097656 7.953125 -3.664062 7.953125 -4.3125 Z M 7.953125 -4.3125 "/></g></g></g><g fill="#000000" fill-opacity="1"><g transform="translate(118.374376, 62.909877)"><g><path d="M 8.609375 -8.59375 L 3.4375 4.046875 L 1.953125 4.046875 L 3.65625 -0.09375 L 0.1875 -8.59375 L 1.765625 -8.59375 L 4.46875 -1.625 L 7.125 -8.59375 Z M 8.609375 -8.59375 "/></g></g></g></svg>